<svg xmlns="http://www.w3.org/2000/svg" xmlns:xlink="http://www.w3.org/1999/xlink" width="500" zoomAndPan="magnify" viewBox="0 0 375 374.999991" height="500" preserveAspectRatio="xMidYMid meet" version="1.0"><defs><clipPath id="462831f5be"><path d="M 55 69 L 320.449219 69 L 320.449219 314 L 55 314 Z M 55 69 " clip-rule="nonzero"/></clipPath><clipPath id="81dc42c72d"><path d="M 280.078125 156.042969 L 337.820312 156.042969 L 337.820312 273.386719 L 280.078125 273.386719 Z M 280.078125 156.042969 " clip-rule="nonzero"/></clipPath></defs><g clip-path="url(#462831f5be)"><path fill="#d6bfff" d="M 320.136719 147.914062 C 319.042969 118.449219 296.101562 100.648438 292.824219 98.367188 C 276.984375 87.347656 257.671875 82.914062 238.621094 84.96875 C 227.40625 86.191406 216.320312 88.664062 205.042969 88.855469 C 169.121094 89.53125 137.824219 60.710938 100.8125 71.730469 C 79.316406 78.125 57.113281 100.457031 55.507812 124.296875 C 54.316406 141.777344 67.007812 154.4375 75.910156 168.125 C 91.074219 191.484375 90.464844 219.597656 85.164062 246.105469 C 82.367188 260.050781 79.863281 274.667969 83.75 288.355469 C 88.085938 303.585938 103.992188 314.15625 119.703125 313.128906 C 138.019531 311.941406 149.390625 293.242188 167.835938 289.515625 C 183.613281 286.332031 197.429688 293.820312 212.945312 294.429688 C 224.546875 294.878906 236.050781 290.605469 245.304688 283.601562 C 259.214844 273.03125 266.605469 259.761719 268.210938 242.761719 C 269.496094 229.140625 268.695312 214.648438 281.03125 205.621094 C 286.300781 201.765625 292.375 199.160156 297.773438 195.46875 C 313.324219 184.863281 320.808594 166.355469 320.136719 147.914062 Z M 320.136719 147.914062 " fill-opacity="1" fill-rule="nonzero"/></g><path fill="#b6a5c9" d="M 71.050781 171.742188 C 70.046875 176.300781 84.214844 181.722656 85.304688 187.019531 C 86.011719 190.441406 89.601562 196.832031 93.460938 202.25 C 98.304688 209.046875 103.375 213.757812 104.339844 218.34375 C 105.304688 222.925781 103.847656 238.296875 114.59375 242.511719 C 124.984375 246.585938 132.777344 237.636719 135.320312 229.828125 C 138.546875 219.917969 134.625 214 133.273438 215.363281 C 131.921875 216.730469 129.214844 230.941406 125.414062 226.015625 C 123.671875 223.757812 127.976562 219.898438 130.355469 211.652344 C 133.863281 199.488281 125.511719 186.972656 122.972656 192.460938 C 120.433594 197.945312 125.800781 211.695312 118.886719 209.941406 C 114.277344 208.769531 120.121094 196.835938 119.128906 191.875 C 116.980469 181.160156 101.796875 176.902344 105.015625 180.996094 C 111.664062 189.453125 108.746094 197.765625 105.429688 193.777344 C 102.113281 189.792969 103.757812 186.003906 98.734375 179.726562 C 94.394531 174.3125 71.445312 169.945312 71.050781 171.742188 " fill-opacity="1" fill-rule="nonzero"/><path fill="#9e8cb3" d="M 109.679688 260.648438 C 109.683594 260.648438 109.683594 260.648438 109.683594 260.648438 C 109.894531 260.707031 110.117188 260.582031 110.175781 260.375 C 112.972656 250.445312 113.304688 239.925781 111.164062 229.097656 C 110.003906 223.234375 108.152344 217.503906 105.667969 212.074219 C 98.820312 197.125 92.664062 188.8125 88.707031 184.476562 C 84.382812 179.730469 81.699219 178.5625 81.585938 178.515625 C 81.382812 178.425781 81.148438 178.523438 81.0625 178.726562 C 80.976562 178.933594 81.070312 179.164062 81.273438 179.25 C 81.308594 179.265625 83.964844 180.445312 88.183594 185.089844 C 92.089844 189.390625 98.167969 197.617188 104.941406 212.410156 C 109.082031 221.457031 115.171875 239.6875 109.40625 260.15625 C 109.347656 260.367188 109.46875 260.585938 109.679688 260.648438 " fill-opacity="1" fill-rule="nonzero"/><path fill="#9e8cb3" d="M 111.511719 250.457031 C 103.40625 258.195312 92.335938 253.875 85.152344 252.847656 C 77.972656 251.824219 73.527344 257.703125 68.550781 252.925781 C 63.570312 248.148438 67.128906 238.398438 62.933594 235.90625 C 58.738281 233.414062 53.601562 231.191406 54.679688 226.453125 C 55.753906 221.710938 64.5625 216.582031 72.066406 217.695312 C 76.214844 218.308594 78.929688 222.410156 81 221.261719 C 83.078125 220.113281 92.066406 215.300781 96.78125 220.566406 C 101.496094 225.832031 119.617188 242.714844 111.511719 250.457031 " fill-opacity="1" fill-rule="nonzero"/><path fill="#cbbfd9" d="M 122.195312 260.871094 C 122.222656 260.851562 122.253906 260.832031 122.277344 260.808594 C 122.464844 260.636719 122.476562 260.339844 122.300781 260.152344 C 106.976562 243.625 90.753906 235.191406 79.84375 231.027344 C 68.007812 226.507812 59.671875 225.894531 59.589844 225.890625 C 59.335938 225.871094 59.113281 226.066406 59.097656 226.320312 C 59.078125 226.578125 59.269531 226.796875 59.527344 226.816406 C 59.609375 226.820312 67.835938 227.429688 79.550781 231.90625 C 90.359375 236.039062 106.429688 244.402344 121.621094 260.785156 C 121.773438 260.949219 122.011719 260.976562 122.195312 260.871094 " fill-opacity="1" fill-rule="nonzero"/><path fill="#e7daf7" d="M 56.445312 203.457031 C 57.015625 204.453125 61.726562 204.203125 65.582031 201.359375 C 69.042969 198.800781 74.167969 197.621094 74.167969 197.621094 C 74.167969 197.621094 68.71875 196.230469 63.925781 197.652344 C 59.144531 199.070312 55.464844 201.734375 56.445312 203.457031 " fill-opacity="1" fill-rule="nonzero"/><path fill="#e7daf7" d="M 65.292969 207.878906 C 66.855469 209.792969 71.3125 208.636719 76.246094 207.148438 C 81.234375 205.648438 88.496094 203.816406 88.496094 203.816406 C 88.496094 203.816406 77.425781 201.566406 71.425781 202.871094 C 65.4375 204.175781 63.824219 206.078125 65.292969 207.878906 " fill-opacity="1" fill-rule="nonzero"/><path fill="#e7daf7" d="M 78.507812 213.171875 C 79.289062 214.257812 82.195312 214.199219 87.128906 212.710938 C 92.117188 211.210938 100.671875 212.410156 100.671875 212.410156 C 100.671875 212.410156 91.386719 206.226562 85.382812 207.535156 C 79.394531 208.835938 77.144531 211.292969 78.507812 213.171875 " fill-opacity="1" fill-rule="nonzero"/><path fill="#e7daf7" d="M 90.40625 218.496094 C 90.484375 220.484375 93.390625 221.105469 99.765625 221.035156 C 104.976562 220.976562 112.785156 223.535156 112.785156 223.535156 C 112.785156 223.535156 105.449219 218.054688 99.472656 216.632812 C 93.5625 215.226562 90.316406 216.175781 90.40625 218.496094 " fill-opacity="1" fill-rule="nonzero"/><path fill="#e7daf7" d="M 100.269531 226.804688 C 100.347656 228.792969 102.902344 230.625 109.3125 229.308594 C 114.417969 228.261719 121 232.628906 121 232.628906 C 121 232.628906 114.195312 226.113281 108.21875 224.691406 C 102.308594 223.285156 100.183594 224.484375 100.269531 226.804688 " fill-opacity="1" fill-rule="nonzero"/><path fill="#e7daf7" d="M 108.839844 234.632812 C 108.914062 236.621094 111.019531 238.40625 117.644531 239.546875 C 122.78125 240.429688 128.796875 243.242188 128.796875 243.242188 C 128.796875 243.242188 122.808594 237.953125 117.328125 235.1875 C 113.058594 233.035156 108.75 232.308594 108.839844 234.632812 " fill-opacity="1" fill-rule="nonzero"/><path fill="#e7daf7" d="M 58.460938 187.027344 C 57.386719 188.679688 63.925781 192.34375 66.414062 192.960938 C 68.902344 193.578125 79.070312 199.410156 79.070312 199.410156 C 79.070312 199.410156 73.167969 191.773438 67.820312 188.640625 C 62.472656 185.503906 59.550781 185.339844 58.460938 187.027344 " fill-opacity="1" fill-rule="nonzero"/><path fill="#e7daf7" d="M 75.660156 190.535156 C 74.589844 192.191406 79.28125 196.550781 82.21875 198.402344 C 84.386719 199.769531 90.304688 204.90625 90.304688 204.90625 C 90.304688 204.90625 88.214844 197.375 83.917969 192.910156 C 79.035156 187.832031 76.753906 188.847656 75.660156 190.535156 " fill-opacity="1" fill-rule="nonzero"/><path fill="#e7daf7" d="M 93.300781 198.863281 C 92.230469 200.515625 96.210938 205.007812 99.152344 206.859375 C 101.316406 208.230469 106.585938 217.09375 106.585938 217.09375 C 106.585938 217.09375 105.144531 205.835938 100.851562 201.367188 C 95.96875 196.289062 94.394531 197.175781 93.300781 198.863281 " fill-opacity="1" fill-rule="nonzero"/><path fill="#e7daf7" d="M 107.585938 206.964844 C 104.265625 208.4375 109.109375 214.082031 111.023438 216.976562 C 112.292969 218.890625 115.117188 225.828125 115.117188 225.828125 C 115.117188 225.828125 113.984375 221.449219 113.480469 215.273438 C 113.164062 211.433594 111.917969 205.042969 107.585938 206.964844 " fill-opacity="1" fill-rule="nonzero"/><path fill="#e7daf7" d="M 117.042969 215.425781 C 113.742188 217.917969 117.375 223.097656 118.34375 225.027344 C 120.28125 228.894531 122.574219 234.28125 122.574219 234.28125 C 122.574219 234.28125 122.492188 229.101562 122.398438 223.175781 C 122.285156 216.132812 118.648438 214.21875 117.042969 215.425781 " fill-opacity="1" fill-rule="nonzero"/><path fill="#e7daf7" d="M 125.722656 224.773438 C 124.648438 226.425781 124.34375 229.507812 125.605469 233.839844 C 126.320312 236.304688 127.359375 240.84375 127.359375 240.84375 C 127.359375 240.84375 129.179688 236.621094 129.550781 232.957031 C 130.269531 225.949219 126.816406 223.085938 125.722656 224.773438 " fill-opacity="1" fill-rule="nonzero"/><path fill="#d1bee7" d="M 135.988281 258.332031 C 136.042969 258.238281 136.0625 258.125 136.027344 258.011719 C 133.425781 249.238281 128.277344 240.289062 120.726562 231.402344 C 114.476562 224.050781 106.570312 216.660156 96.554688 208.796875 C 90.078125 203.710938 82.769531 199.867188 74.832031 197.375 C 68.429688 195.367188 63.386719 194.789062 60.964844 194.511719 C 60.34375 194.441406 59.808594 194.378906 59.671875 194.332031 C 59.460938 194.265625 59.234375 194.378906 59.167969 194.589844 C 59.097656 194.800781 59.214844 195.023438 59.425781 195.09375 C 59.628906 195.160156 60.015625 195.207031 60.875 195.304688 C 74.242188 196.839844 86.082031 201.589844 96.0625 209.425781 C 117.746094 226.445312 130.566406 242.414062 135.257812 258.238281 C 135.324219 258.449219 135.546875 258.570312 135.757812 258.507812 C 135.859375 258.480469 135.9375 258.414062 135.988281 258.332031 " fill-opacity="1" fill-rule="nonzero"/><path fill="#e7daf7" d="M 37.425781 197.234375 C 37.644531 198.703125 43.492188 199.597656 48.796875 198.742188 C 54.164062 197.878906 60.671875 194.882812 60.671875 194.882812 C 60.671875 194.882812 54.9375 191.433594 48.71875 191.863281 C 42.515625 192.289062 37.042969 194.683594 37.425781 197.234375 " fill-opacity="1" fill-rule="nonzero"/><path fill="#ee9775" d="M 241.738281 227.671875 C 242.4375 238.671875 248.445312 255.613281 248.109375 256.484375 C 246.636719 260.339844 247.375 261.050781 249.835938 260.941406 C 251.21875 260.878906 250.464844 257.292969 250.6875 255.851562 C 252.492188 244.351562 254.238281 230.636719 254.511719 225.457031 C 254.675781 222.324219 255.621094 206.644531 253.734375 196.808594 C 252.886719 192.378906 249.742188 190.351562 246.160156 190.554688 C 233.710938 191.265625 240.851562 213.773438 241.738281 227.671875 " fill-opacity="1" fill-rule="nonzero"/><path fill="#534463" d="M 241.164062 222.132812 C 239.375 208.503906 235.261719 191.179688 246.160156 190.554688 C 249.742188 190.351562 252.886719 192.378906 253.738281 196.808594 C 255.285156 204.890625 254.925781 216.914062 254.65625 222.6875 C 249.078125 223.085938 244.339844 222.570312 241.164062 222.132812 " fill-opacity="1" fill-rule="nonzero"/><path fill="#ee9775" d="M 257.132812 225.953125 C 255.695312 240.972656 257.960938 254.703125 257.851562 255.636719 C 257.660156 257.257812 257.4375 259.472656 258.484375 259.773438 C 259.710938 260.121094 263.964844 259.558594 265.199219 259.34375 C 265.445312 259.300781 265.601562 259.023438 265.5 258.78125 C 264.707031 256.785156 260.515625 256.992188 260.726562 255.65625 C 262.53125 244.152344 265.828125 234.445312 266.578125 226.832031 C 267.070312 221.855469 268.605469 187.03125 257.886719 189.339844 C 245.019531 192.105469 252.199219 203.957031 255.1875 216.191406 C 255.875 219.015625 257.378906 223.355469 257.132812 225.953125 " fill-opacity="1" fill-rule="nonzero"/><path fill="#534463" d="M 257.886719 189.339844 C 266.796875 187.421875 269.0625 209.574219 269.289062 219.960938 C 266.042969 220.828125 261.421875 221.957031 256.808594 222.484375 C 256.371094 220.328125 255.621094 217.960938 255.1875 216.191406 C 252.199219 203.957031 245.019531 192.105469 257.886719 189.339844 " fill-opacity="1" fill-rule="nonzero"/><path fill="#ffc14d" d="M 259.601562 256.679688 C 260.375 256.523438 260.949219 256.292969 261.367188 256.0625 C 262.53125 256.628906 264.921875 256.910156 265.5 258.367188 C 265.601562 258.609375 265.445312 258.886719 265.199219 258.929688 C 263.964844 259.148438 259.710938 259.707031 258.484375 259.359375 C 257.722656 259.140625 257.632812 257.914062 257.714844 256.632812 C 258.234375 256.765625 258.878906 256.824219 259.601562 256.679688 " fill-opacity="1" fill-rule="nonzero"/><path fill="#ffc14d" d="M 249.835938 260.941406 C 247.441406 261.046875 246.675781 260.378906 247.996094 256.789062 C 248.472656 257.050781 248.976562 257.226562 249.382812 257.132812 C 249.8125 257.039062 250.257812 256.886719 250.644531 256.738281 C 250.65625 258.398438 250.988281 260.886719 249.835938 260.941406 " fill-opacity="1" fill-rule="nonzero"/><path fill="#ee9775" d="M 258.292969 161.695312 C 265.167969 163.097656 270.238281 174.433594 272.53125 172.726562 C 274.820312 171.015625 280.851562 164.40625 280.851562 164.40625 L 282.496094 165.5625 C 282.496094 165.5625 279.910156 183.066406 272.152344 184.253906 C 264.394531 185.4375 260.207031 178.515625 257.746094 175.285156 C 253.550781 169.777344 253.066406 160.636719 258.292969 161.695312 " fill-opacity="1" fill-rule="nonzero"/><path fill="#ee9775" d="M 280.800781 164.105469 C 280.800781 164.105469 281.609375 161 282.105469 160.835938 C 282.597656 160.675781 281.976562 162.066406 282.292969 162.121094 C 282.609375 162.175781 285.039062 160.089844 285.269531 160.433594 C 285.503906 160.777344 283.691406 161.816406 283.902344 162.105469 C 284.027344 162.285156 286.007812 160.886719 286.207031 161.207031 C 286.410156 161.527344 284.289062 162.5625 284.320312 162.777344 C 284.371094 163.101562 286.207031 162.148438 286.308594 162.503906 C 286.410156 162.867188 284.449219 163.382812 284.519531 163.675781 C 284.570312 163.871094 285.945312 163.382812 285.972656 163.707031 C 286 164.015625 282.640625 165.296875 281.855469 165.351562 C 281.324219 165.390625 281.488281 165.75 281.042969 165.285156 C 280.601562 164.820312 280.800781 164.105469 280.800781 164.105469 " fill-opacity="1" fill-rule="nonzero"/><path fill="#abd0d9" d="M 269.328125 184.328125 C 269.570312 184.355469 269.816406 184.375 270.0625 184.382812 C 270.730469 184.40625 271.425781 184.363281 272.152344 184.253906 C 272.25 184.238281 272.34375 184.21875 272.4375 184.203125 C 273.292969 184.011719 274.171875 183.570312 275.042969 182.945312 C 279.007812 179.839844 281.121094 172.238281 281.996094 168.195312 C 281.4375 168.199219 280.789062 168.082031 280.207031 167.648438 C 279.726562 167.289062 279.375 166.78125 279.121094 166.269531 C 277.15625 168.359375 274.035156 171.601562 272.53125 172.726562 C 272.125 173.027344 271.632812 172.921875 271.058594 172.535156 C 270.984375 172.484375 270.914062 172.429688 270.835938 172.375 C 270.5625 172.160156 270.269531 171.894531 269.957031 171.582031 C 269.71875 171.335938 269.464844 171.066406 269.203125 170.773438 C 269.023438 170.578125 268.84375 170.371094 268.65625 170.15625 C 268.503906 169.980469 268.347656 169.796875 268.1875 169.613281 C 268 169.390625 267.804688 169.164062 267.609375 168.933594 C 267.523438 168.835938 267.441406 168.738281 267.355469 168.636719 C 267.28125 168.550781 267.207031 168.464844 267.128906 168.378906 C 266.675781 167.851562 266.203125 167.3125 265.710938 166.78125 C 265.632812 166.691406 265.550781 166.605469 265.464844 166.515625 C 263.390625 164.308594 260.980469 162.242188 258.292969 161.695312 C 258.050781 161.648438 257.816406 161.621094 257.59375 161.613281 C 257.441406 161.609375 257.289062 161.617188 257.144531 161.632812 C 257.03125 161.644531 256.925781 161.664062 256.820312 161.691406 C 256.785156 161.699219 256.746094 161.710938 256.707031 161.71875 C 256.644531 161.738281 256.585938 161.757812 256.527344 161.777344 C 256.441406 161.808594 256.355469 161.84375 256.277344 161.882812 C 256.269531 161.890625 256.261719 161.890625 256.253906 161.894531 C 255.109375 162.484375 254.542969 163.933594 254.488281 165.765625 C 254.488281 165.851562 254.484375 165.9375 254.484375 166.027344 C 254.484375 166.472656 254.511719 166.933594 254.566406 167.414062 C 254.589844 167.605469 254.617188 167.796875 254.648438 167.992188 C 254.910156 169.648438 255.492188 171.429688 256.347656 173.074219 C 256.652344 173.65625 256.992188 174.222656 257.363281 174.757812 C 257.488281 174.9375 257.613281 175.113281 257.746094 175.285156 C 257.976562 175.585938 258.222656 175.921875 258.484375 176.28125 C 258.660156 176.519531 258.839844 176.765625 259.035156 177.023438 C 259.792969 178.050781 260.683594 179.1875 261.722656 180.257812 C 262.113281 180.660156 262.527344 181.054688 262.964844 181.421875 C 263.109375 181.550781 263.257812 181.671875 263.40625 181.789062 C 264.3125 182.507812 265.308594 183.132812 266.414062 183.59375 C 266.597656 183.667969 266.785156 183.742188 266.976562 183.804688 C 267.207031 183.886719 267.4375 183.957031 267.675781 184.023438 C 268.203125 184.164062 268.753906 184.273438 269.328125 184.328125 " fill-opacity="1" fill-rule="nonzero"/><path fill="#63aaba" d="M 259.457031 162.621094 C 258.4375 162.203125 257.785156 161.886719 256.546875 161.773438 C 256.539062 161.773438 256.535156 161.773438 256.527344 161.777344 C 256.441406 161.808594 256.355469 161.84375 256.277344 161.882812 C 256.269531 161.890625 256.261719 161.890625 256.253906 161.894531 C 255.109375 162.484375 254.542969 163.933594 254.488281 165.765625 C 254.488281 165.851562 254.484375 165.9375 254.484375 166.027344 C 254.484375 166.472656 254.511719 166.933594 254.566406 167.414062 C 254.589844 167.605469 254.617188 167.796875 254.648438 167.992188 C 254.910156 169.648438 255.492188 171.429688 256.347656 173.074219 C 256.652344 173.65625 256.992188 174.222656 257.363281 174.757812 C 257.488281 174.9375 257.613281 175.113281 257.746094 175.285156 C 257.976562 175.585938 258.222656 175.921875 258.484375 176.28125 C 258.660156 176.519531 258.839844 176.765625 259.035156 177.023438 C 259.792969 178.050781 260.683594 179.1875 261.722656 180.257812 C 262.113281 180.660156 262.527344 181.054688 262.964844 181.421875 C 263.109375 181.550781 263.257812 181.671875 263.40625 181.789062 C 263.992188 182.253906 264.613281 182.679688 265.28125 183.046875 C 265.167969 181.796875 265.070312 180.574219 264.988281 179.429688 C 264.832031 177.144531 266.296875 176.421875 266.554688 173.972656 C 266.988281 169.859375 261.28125 163.375 259.457031 162.621094 " fill-opacity="1" fill-rule="nonzero"/><path fill="#abd0d9" d="M 251.609375 161.101562 C 251.609375 161.101562 245 160.808594 241.597656 161.695312 C 237.445312 162.78125 241.167969 169.835938 240.730469 178.878906 C 240.285156 188.015625 239.304688 196.964844 239.304688 196.964844 C 239.304688 196.964844 241.890625 195.757812 249.980469 195.597656 C 257.425781 195.453125 265.234375 197.269531 265.234375 197.269531 C 265.234375 197.269531 263.859375 186.414062 263.335938 178.875 C 263.179688 176.585938 264.644531 175.863281 264.902344 173.414062 C 265.335938 169.300781 260.332031 162.722656 258.503906 161.96875 C 256.042969 160.953125 251.609375 161.101562 251.609375 161.101562 " fill-opacity="1" fill-rule="nonzero"/><path fill="#63aaba" d="M 240.746094 176.195312 C 243.667969 175.414062 246.230469 170.570312 245.765625 167.140625 C 245.359375 164.144531 244.929688 162.667969 241.757812 162.578125 C 241.253906 162.566406 240.726562 162.585938 240.179688 162.628906 C 238.914062 164.453125 239.984375 176.398438 240.746094 176.195312 " fill-opacity="1" fill-rule="nonzero"/><path fill="#fdb2d0" d="M 242.800781 171.996094 C 241.515625 172.410156 240.460938 172.492188 240.460938 172.492188 C 240.460938 172.492188 240.46875 172.5 240.484375 172.503906 L 240.585938 172.550781 C 240.589844 172.550781 240.597656 172.554688 240.601562 172.558594 L 243.527344 173.882812 L 243.195312 176.03125 C 243.195312 176.03125 225.277344 178.363281 222.636719 174.492188 C 218.417969 168.3125 233.902344 160.75 242.441406 161.511719 C 245.597656 161.792969 247.082031 163.324219 247.300781 166.339844 C 247.554688 169.792969 244.878906 171.328125 242.800781 171.996094 " fill-opacity="1" fill-rule="nonzero"/><path fill="#d9413f" d="M 257.71875 146.230469 C 254.117188 143.65625 247.304688 142.886719 242.441406 148.320312 C 237.785156 153.523438 239.003906 158.015625 242.894531 160.023438 C 245 161.105469 252.273438 159.882812 252.273438 159.882812 C 252.273438 159.882812 258.714844 159.957031 260.578125 158.375 C 264.9375 154.671875 261.132812 148.667969 257.71875 146.230469 " fill-opacity="1" fill-rule="nonzero"/><path fill="#a63230" d="M 262.238281 152.359375 C 261.96875 153.675781 261.910156 154.023438 260.800781 154.441406 C 258.011719 155.492188 255.621094 150.308594 255.621094 150.308594 L 246.367188 152.984375 C 246.367188 152.984375 246.589844 156.675781 243.71875 156.882812 C 240.671875 157.097656 240.089844 154.203125 239.578125 153.4375 C 238.964844 156.359375 240.363281 158.71875 242.894531 160.023438 C 245 161.105469 252.273438 159.882812 252.273438 159.882812 C 252.273438 159.882812 258.714844 159.957031 260.578125 158.375 C 262.59375 156.664062 262.863281 154.46875 262.238281 152.359375 " fill-opacity="1" fill-rule="nonzero"/><path fill="#ee9775" d="M 247.308594 161.078125 C 250.285156 161.066406 249.390625 156.722656 249.390625 156.722656 L 253.589844 156.84375 C 253.589844 156.84375 251.804688 159.964844 254.527344 161.183594 C 254.527344 161.183594 256.277344 164.6875 252.976562 165.070312 C 249.1875 165.511719 247.042969 161.078125 247.308594 161.078125 " fill-opacity="1" fill-rule="nonzero"/><path fill="#d47653" d="M 249.261719 159.734375 C 249.757812 159.898438 250.285156 160.003906 250.839844 160.019531 C 251.644531 160.046875 252.40625 159.894531 253.101562 159.613281 C 252.757812 158.304688 253.589844 156.84375 253.589844 156.84375 L 249.390625 156.722656 C 249.390625 156.722656 249.746094 158.453125 249.261719 159.734375 " fill-opacity="1" fill-rule="nonzero"/><path fill="#ee9775" d="M 256.285156 154.613281 C 256.1875 157.375 253.734375 159.535156 250.808594 159.441406 C 247.882812 159.34375 245.59375 157.027344 245.695312 154.269531 C 245.792969 151.507812 248.246094 149.347656 251.171875 149.445312 C 254.097656 149.539062 256.386719 151.851562 256.285156 154.613281 " fill-opacity="1" fill-rule="nonzero"/><path fill="#ee9775" d="M 256.738281 152.902344 C 256.425781 153.519531 255.667969 153.765625 255.050781 153.449219 C 254.433594 153.136719 254.1875 152.378906 254.503906 151.761719 C 254.820312 151.144531 255.574219 150.902344 256.191406 151.214844 C 256.808594 151.53125 257.054688 152.289062 256.738281 152.902344 " fill-opacity="1" fill-rule="nonzero"/><path fill="#d9413f" d="M 255.621094 150.308594 C 255.253906 151.132812 255.132812 151.964844 250.992188 153.597656 C 246.847656 155.226562 245.949219 155.875 244.710938 155.265625 C 242.5 154.167969 244.269531 149.917969 247.871094 148.371094 C 251.472656 146.832031 255.992188 149.476562 255.621094 150.308594 " fill-opacity="1" fill-rule="nonzero"/><path fill="#a63230" d="M 251.359375 152.789062 C 247.214844 154.417969 246.316406 155.066406 245.078125 154.457031 C 244.066406 153.953125 243.890625 152.792969 244.339844 151.527344 C 243.484375 153.078125 243.484375 154.65625 244.710938 155.265625 C 245.949219 155.875 246.847656 155.226562 250.992188 153.597656 C 255.132812 151.964844 255.253906 151.132812 255.621094 150.308594 C 255.632812 150.277344 255.640625 150.25 255.640625 150.214844 C 255.234375 150.855469 254.335938 151.617188 251.359375 152.789062 " fill-opacity="1" fill-rule="nonzero"/><path fill="#abd0d9" d="M 241.40625 176.234375 C 241.515625 173.835938 242.703125 173.507812 242.703125 173.507812 L 240.601562 172.558594 C 240.597656 172.554688 240.589844 172.550781 240.585938 172.550781 L 240.484375 172.503906 C 240.46875 172.5 240.460938 172.492188 240.460938 172.492188 C 240.460938 172.492188 241.515625 172.570312 242.839844 172.304688 C 245.804688 171.707031 248.105469 169.386719 247.851562 165.933594 C 247.632812 162.921875 245.957031 161.730469 242.800781 161.449219 C 234.261719 160.6875 218.417969 168.3125 222.636719 174.492188 C 224.765625 177.613281 236.804688 176.703125 241.40625 176.234375 " fill-opacity="1" fill-rule="nonzero"/><path fill="#63aaba" d="M 242.894531 172.410156 C 241.613281 172.820312 240.460938 172.492188 240.460938 172.492188 C 240.460938 172.492188 234.765625 170.332031 229.320312 169.183594 C 227.710938 168.839844 231.519531 168.488281 236.886719 169.566406 C 239.761719 170.148438 241.46875 171.480469 242.894531 172.410156 " fill-opacity="1" fill-rule="nonzero"/><path fill="#ee9775" d="M 243.496094 173.433594 C 243.496094 173.433594 247.453125 173.523438 248.636719 175.625 C 249.265625 176.746094 248.257812 176.066406 246.496094 175.558594 C 245.34375 175.234375 244.933594 175.335938 244.691406 175.578125 C 244.480469 175.796875 244.957031 176.121094 245.265625 176.773438 C 245.765625 177.828125 243.5625 176.1875 243.027344 175.488281 C 242.488281 174.789062 242.609375 173.300781 243.496094 173.433594 " fill-opacity="1" fill-rule="nonzero"/><path fill="#fde3b9" d="M 250.511719 175 L 250.511719 175.3125 L 250.5 175.3125 C 250.136719 175.304688 249.867188 175.417969 249.703125 175.65625 C 249.691406 175.675781 249.675781 175.695312 249.664062 175.714844 C 249.621094 175.796875 249.566406 175.867188 249.503906 175.929688 L 238.402344 175.929688 L 238.40625 175.8125 L 238.421875 173.796875 C 238.429688 173.488281 238.621094 173.214844 238.914062 173.113281 C 239.773438 172.808594 241.71875 172.242188 244.28125 172.242188 C 248.925781 172.242188 250.210938 174.355469 250.460938 174.882812 C 250.496094 174.957031 250.511719 175 250.511719 175 " fill-opacity="1" fill-rule="nonzero"/><path fill="#fde3b9" d="M 262.574219 175.929688 L 251.511719 175.929688 C 251.453125 175.871094 251.402344 175.804688 251.359375 175.734375 C 251.34375 175.707031 251.324219 175.679688 251.304688 175.65625 C 251.136719 175.4375 250.871094 175.324219 250.511719 175.3125 L 250.5 175.3125 C 250.492188 175.3125 250.480469 175.3125 250.46875 175.3125 L 250.46875 175 C 250.46875 175 250.484375 174.957031 250.519531 174.882812 C 250.769531 174.355469 252.054688 172.242188 256.695312 172.242188 C 259.261719 172.242188 261.207031 172.808594 262.066406 173.113281 C 262.355469 173.214844 262.554688 173.488281 262.554688 173.796875 L 262.574219 175.8125 L 262.574219 175.929688 " fill-opacity="1" fill-rule="nonzero"/><path fill="#c9b593" d="M 249.867188 174.984375 C 249.851562 174.984375 249.835938 174.976562 249.824219 174.957031 C 249.8125 174.945312 248.59375 173.363281 245.617188 173.046875 C 242.660156 172.738281 239.496094 173.621094 239.464844 173.628906 C 239.4375 173.636719 239.40625 173.621094 239.394531 173.589844 C 239.386719 173.558594 239.40625 173.527344 239.433594 173.519531 C 239.464844 173.507812 242.648438 172.621094 245.628906 172.933594 C 248.660156 173.253906 249.902344 174.875 249.914062 174.890625 C 249.933594 174.914062 249.929688 174.953125 249.902344 174.972656 C 249.894531 174.976562 249.882812 174.984375 249.867188 174.984375 " fill-opacity="1" fill-rule="nonzero"/><path fill="#c9b593" d="M 247.679688 175.085938 C 247.671875 175.085938 247.664062 175.085938 247.660156 175.085938 C 247.636719 175.078125 245.253906 174.328125 238.421875 175.058594 C 238.386719 175.0625 238.359375 175.039062 238.359375 175.007812 C 238.351562 174.976562 238.378906 174.945312 238.410156 174.945312 C 245.273438 174.210938 247.671875 174.964844 247.695312 174.976562 C 247.726562 174.984375 247.742188 175.015625 247.734375 175.046875 C 247.726562 175.074219 247.703125 175.085938 247.679688 175.085938 " fill-opacity="1" fill-rule="nonzero"/><path fill="#c9b593" d="M 239.453125 175.425781 C 239.417969 175.425781 239.394531 175.402344 239.394531 175.375 C 239.390625 175.339844 239.414062 175.3125 239.445312 175.308594 C 239.480469 175.308594 242.957031 175.046875 245.179688 175.273438 C 245.210938 175.277344 245.234375 175.308594 245.230469 175.339844 C 245.226562 175.371094 245.195312 175.394531 245.164062 175.390625 C 242.957031 175.160156 239.488281 175.421875 239.457031 175.425781 C 239.453125 175.425781 239.453125 175.425781 239.453125 175.425781 " fill-opacity="1" fill-rule="nonzero"/><path fill="#c9b593" d="M 248.964844 174.941406 C 248.953125 174.941406 248.941406 174.9375 248.933594 174.929688 C 248.910156 174.914062 246.628906 173.449219 243.296875 173.734375 C 243.269531 173.742188 243.238281 173.714844 243.234375 173.683594 C 243.234375 173.652344 243.257812 173.625 243.289062 173.621094 C 246.660156 173.324219 248.972656 174.816406 248.996094 174.832031 C 249.023438 174.851562 249.03125 174.886719 249.011719 174.914062 C 249.003906 174.933594 248.984375 174.941406 248.964844 174.941406 " fill-opacity="1" fill-rule="nonzero"/><path fill="#c9b593" d="M 262.367188 173.835938 C 262.359375 173.835938 262.351562 173.835938 262.34375 173.828125 C 262.316406 173.816406 259.449219 172.539062 256.242188 172.753906 C 253.859375 172.910156 253.222656 173.347656 252.605469 173.773438 C 252.578125 173.789062 252.542969 173.785156 252.527344 173.757812 C 252.507812 173.730469 252.515625 173.695312 252.539062 173.679688 C 253.167969 173.246094 253.820312 172.796875 256.230469 172.636719 C 259.46875 172.421875 262.363281 173.710938 262.390625 173.726562 C 262.421875 173.738281 262.433594 173.769531 262.421875 173.800781 C 262.410156 173.820312 262.386719 173.835938 262.367188 173.835938 " fill-opacity="1" fill-rule="nonzero"/><path fill="#c9b593" d="M 252.777344 175.46875 C 252.75 175.46875 252.726562 175.449219 252.71875 175.425781 C 252.710938 175.398438 252.726562 175.363281 252.757812 175.355469 C 252.769531 175.347656 254.125 174.90625 255.390625 174.824219 C 257.824219 174.667969 260.167969 175.027344 261.425781 175.21875 C 261.792969 175.277344 262.0625 175.320312 262.207031 175.328125 C 262.238281 175.332031 262.261719 175.359375 262.261719 175.390625 C 262.261719 175.421875 262.230469 175.445312 262.199219 175.445312 C 262.050781 175.4375 261.78125 175.394531 261.410156 175.335938 C 260.152344 175.144531 257.820312 174.78125 255.398438 174.941406 C 254.144531 175.023438 252.808594 175.457031 252.792969 175.464844 C 252.789062 175.464844 252.78125 175.46875 252.777344 175.46875 " fill-opacity="1" fill-rule="nonzero"/><path fill="#c9b593" d="M 261.527344 174.730469 C 261.523438 174.730469 261.519531 174.730469 261.511719 174.726562 C 261.386719 174.699219 261.238281 174.664062 261.070312 174.625 C 259.8125 174.328125 257.476562 173.769531 254.898438 174.316406 C 254.867188 174.328125 254.835938 174.304688 254.828125 174.273438 C 254.820312 174.242188 254.84375 174.210938 254.875 174.203125 C 257.476562 173.652344 259.832031 174.210938 261.097656 174.511719 C 261.265625 174.550781 261.410156 174.585938 261.539062 174.613281 C 261.570312 174.621094 261.589844 174.652344 261.582031 174.683594 C 261.578125 174.710938 261.550781 174.730469 261.527344 174.730469 " fill-opacity="1" fill-rule="nonzero"/><path fill="#c9b593" d="M 251.4375 175.183594 C 251.421875 175.183594 251.410156 175.179688 251.394531 175.167969 C 251.371094 175.144531 251.371094 175.109375 251.394531 175.085938 C 251.40625 175.074219 252.585938 173.875 254.15625 173.507812 C 257.179688 172.792969 259.214844 173.34375 260.429688 173.675781 L 260.59375 173.71875 C 260.625 173.730469 260.644531 173.761719 260.636719 173.792969 C 260.625 173.820312 260.59375 173.839844 260.566406 173.835938 L 260.398438 173.789062 C 259.195312 173.460938 257.179688 172.914062 254.183594 173.617188 C 252.640625 173.980469 251.492188 175.15625 251.480469 175.167969 C 251.464844 175.179688 251.453125 175.183594 251.4375 175.183594 " fill-opacity="1" fill-rule="nonzero"/><path fill="#7b6594" d="M 262.617188 176.007812 L 251.59375 176.007812 C 251.5625 175.980469 251.535156 175.957031 251.511719 175.929688 C 251.453125 175.871094 251.402344 175.804688 251.359375 175.734375 C 251.34375 175.707031 251.324219 175.679688 251.304688 175.65625 C 251.136719 175.4375 250.871094 175.324219 250.511719 175.3125 L 250.511719 175.078125 C 250.511719 175.078125 250.519531 175.035156 250.546875 174.960938 C 250.550781 174.941406 250.5625 174.914062 250.570312 174.886719 C 250.589844 174.828125 250.609375 174.753906 250.636719 174.671875 C 251.429688 174.730469 251.804688 175.164062 251.964844 175.429688 C 252.027344 175.53125 252.132812 175.59375 252.238281 175.59375 L 262.617188 175.59375 L 262.617188 176.007812 " fill-opacity="1" fill-rule="nonzero"/><path fill="#7b6594" d="M 250.511719 175.078125 L 250.511719 175.3125 L 250.5 175.3125 C 250.492188 175.3125 250.480469 175.3125 250.46875 175.3125 C 250.121094 175.308594 249.863281 175.425781 249.703125 175.65625 C 249.691406 175.675781 249.675781 175.695312 249.664062 175.714844 C 249.621094 175.796875 249.566406 175.867188 249.503906 175.929688 C 249.476562 175.957031 249.449219 175.980469 249.421875 176.007812 L 238.402344 176.007812 L 238.40625 175.886719 L 238.410156 175.8125 L 238.410156 175.59375 L 248.773438 175.59375 C 248.886719 175.59375 248.992188 175.53125 249.050781 175.425781 C 249.203125 175.15625 249.5625 174.726562 250.296875 174.671875 C 250.347656 174.75 250.390625 174.824219 250.421875 174.882812 C 250.4375 174.910156 250.449219 174.933594 250.460938 174.957031 C 250.496094 175.035156 250.511719 175.078125 250.511719 175.078125 " fill-opacity="1" fill-rule="nonzero"/><path fill="#625075" d="M 263.300781 176.070312 C 263.296875 176.191406 263.203125 176.285156 263.085938 176.285156 L 252.238281 176.285156 C 252 176.285156 251.773438 176.199219 251.59375 176.050781 C 251.5625 176.027344 251.535156 176 251.511719 175.972656 C 251.453125 175.914062 251.402344 175.847656 251.359375 175.777344 C 251.34375 175.75 251.324219 175.726562 251.304688 175.699219 C 251.136719 175.484375 250.871094 175.367188 250.511719 175.355469 L 250.5 175.355469 C 250.492188 175.355469 250.480469 175.355469 250.46875 175.355469 C 250.121094 175.351562 249.863281 175.46875 249.703125 175.699219 C 249.691406 175.71875 249.675781 175.738281 249.664062 175.757812 C 249.621094 175.835938 249.566406 175.910156 249.503906 175.972656 C 249.476562 176 249.449219 176.027344 249.421875 176.050781 C 249.238281 176.199219 249.011719 176.285156 248.773438 176.285156 L 238.019531 176.285156 C 237.898438 176.285156 237.800781 176.1875 237.800781 176.070312 C 237.800781 175.949219 237.898438 175.851562 238.019531 175.851562 L 248.773438 175.851562 C 248.886719 175.851562 248.992188 175.789062 249.050781 175.6875 C 249.210938 175.40625 249.601562 174.941406 250.421875 174.925781 L 250.460938 174.925781 C 250.480469 174.925781 250.5 174.925781 250.519531 174.925781 C 250.53125 174.925781 250.539062 174.925781 250.546875 174.925781 C 250.554688 174.925781 250.5625 174.925781 250.570312 174.929688 C 251.40625 174.964844 251.800781 175.417969 251.964844 175.6875 C 252.027344 175.792969 252.132812 175.851562 252.238281 175.851562 L 263.085938 175.851562 C 263.203125 175.851562 263.300781 175.953125 263.300781 176.070312 " fill-opacity="1" fill-rule="nonzero"/><path fill="#bab8b9" d="M 240.484375 172.089844 L 240.585938 172.136719 C 240.539062 172.117188 240.503906 172.101562 240.484375 172.089844 " fill-opacity="1" fill-rule="nonzero"/><path fill="#ffc14d" d="M 286.601562 252.835938 L 286.601562 256.082031 C 286.601562 257.691406 286.316406 259.234375 285.789062 260.660156 C 283.925781 265.757812 279.03125 269.394531 273.289062 269.394531 L 139.804688 269.394531 C 132.449219 269.394531 126.492188 263.433594 126.492188 256.082031 L 126.492188 252.835938 C 126.492188 245.484375 132.449219 239.527344 139.804688 239.527344 L 273.289062 239.527344 C 279.03125 239.527344 283.925781 243.160156 285.789062 248.253906 C 286.316406 249.679688 286.601562 251.226562 286.601562 252.835938 " fill-opacity="1" fill-rule="nonzero"/><path fill="#fde3b9" d="M 103.171875 254.457031 C 103.171875 248.761719 99.304688 243.996094 94.113281 242.769531 C 94.960938 242.570312 95.839844 242.460938 96.746094 242.460938 L 190.003906 242.460938 C 196.457031 242.460938 201.6875 247.832031 201.6875 254.457031 C 201.6875 261.082031 196.457031 266.453125 190.003906 266.453125 L 96.746094 266.453125 C 95.839844 266.453125 94.960938 266.347656 94.113281 266.148438 C 99.304688 264.921875 103.171875 260.15625 103.171875 254.457031 " fill-opacity="1" fill-rule="nonzero"/><path fill="#c9b593" d="M 201.6875 254.5 C 200.652344 248.484375 196.109375 243.695312 190.304688 242.46875 C 190.203125 242.46875 190.105469 242.460938 190.003906 242.460938 L 96.746094 242.460938 C 95.839844 242.460938 94.960938 242.570312 94.113281 242.769531 C 97.148438 243.488281 99.730469 245.417969 101.355469 248.039062 L 187.367188 248.039062 C 192.234375 248.039062 196.191406 252.101562 196.191406 257.097656 C 196.191406 262.089844 192.234375 266.15625 187.367188 266.15625 L 94.164062 266.15625 C 94.996094 266.347656 95.859375 266.453125 96.746094 266.453125 L 190.003906 266.453125 C 196.445312 266.453125 201.667969 261.105469 201.6875 254.5 " fill-opacity="1" fill-rule="nonzero"/><path fill="#c9b593" d="M 170.523438 249.546875 L 110.566406 249.546875 C 110.503906 249.546875 110.449219 249.496094 110.449219 249.429688 C 110.449219 249.367188 110.503906 249.316406 110.566406 249.316406 L 170.523438 249.316406 C 170.589844 249.316406 170.640625 249.367188 170.640625 249.429688 C 170.640625 249.496094 170.589844 249.546875 170.523438 249.546875 " fill-opacity="1" fill-rule="nonzero"/><path fill="#c9b593" d="M 188.214844 252.386719 L 104.960938 252.386719 C 104.894531 252.386719 104.84375 252.335938 104.84375 252.273438 C 104.84375 252.210938 104.894531 252.15625 104.960938 252.15625 L 188.214844 252.15625 C 188.277344 252.15625 188.332031 252.210938 188.332031 252.273438 C 188.332031 252.335938 188.277344 252.386719 188.214844 252.386719 " fill-opacity="1" fill-rule="nonzero"/><path fill="#c9b593" d="M 147.378906 254.574219 L 103.144531 254.574219 C 103.082031 254.574219 103.03125 254.523438 103.03125 254.457031 C 103.03125 254.394531 103.082031 254.34375 103.144531 254.34375 L 147.378906 254.34375 C 147.441406 254.34375 147.496094 254.394531 147.496094 254.457031 C 147.496094 254.523438 147.441406 254.574219 147.378906 254.574219 " fill-opacity="1" fill-rule="nonzero"/><path fill="#c9b593" d="M 180.070312 257.523438 L 121.546875 257.523438 C 121.484375 257.523438 121.429688 257.46875 121.429688 257.40625 C 121.429688 257.34375 121.484375 257.289062 121.546875 257.289062 L 180.070312 257.289062 C 180.136719 257.289062 180.1875 257.34375 180.1875 257.40625 C 180.1875 257.46875 180.136719 257.523438 180.070312 257.523438 " fill-opacity="1" fill-rule="nonzero"/><path fill="#c9b593" d="M 174.238281 259.648438 L 108.75 259.648438 C 108.6875 259.648438 108.632812 259.597656 108.632812 259.53125 C 108.632812 259.46875 108.6875 259.414062 108.75 259.414062 L 174.238281 259.414062 C 174.300781 259.414062 174.351562 259.46875 174.351562 259.53125 C 174.351562 259.597656 174.300781 259.648438 174.238281 259.648438 " fill-opacity="1" fill-rule="nonzero"/><path fill="#c9b593" d="M 187.082031 261.957031 L 102.667969 261.957031 C 102.605469 261.957031 102.550781 261.902344 102.550781 261.839844 C 102.550781 261.773438 102.605469 261.722656 102.667969 261.722656 L 187.082031 261.722656 C 187.148438 261.722656 187.199219 261.773438 187.199219 261.839844 C 187.199219 261.902344 187.148438 261.957031 187.082031 261.957031 " fill-opacity="1" fill-rule="nonzero"/><path fill="#ffcd70" d="M 96.746094 269.394531 L 190.003906 269.394531 C 198.023438 269.394531 204.550781 262.691406 204.550781 254.457031 C 204.550781 246.222656 198.023438 239.527344 190.003906 239.527344 L 96.746094 239.527344 C 95.164062 239.527344 93.882812 240.839844 93.882812 242.460938 C 93.882812 244.082031 95.164062 245.398438 96.746094 245.398438 L 190.003906 245.398438 C 194.867188 245.398438 198.828125 249.460938 198.828125 254.457031 C 198.828125 259.453125 194.867188 263.519531 190.003906 263.519531 L 96.746094 263.519531 C 95.164062 263.519531 93.882812 264.832031 93.882812 266.453125 C 93.882812 268.078125 95.164062 269.394531 96.746094 269.394531 " fill-opacity="1" fill-rule="nonzero"/><path fill="#c7922f" d="M 286.601562 252.835938 L 286.601562 256.082031 C 286.601562 257.691406 286.316406 259.234375 285.789062 260.660156 L 226.664062 260.660156 C 227.1875 259.234375 227.472656 257.691406 227.472656 256.082031 L 227.472656 252.835938 C 227.472656 251.226562 227.1875 249.679688 226.664062 248.253906 L 285.789062 248.253906 C 286.316406 249.679688 286.601562 251.226562 286.601562 252.835938 " fill-opacity="1" fill-rule="nonzero"/><path fill="#bf4124" d="M 250.578125 239.527344 L 131.746094 239.527344 C 125.5 239.527344 120.4375 234.46875 120.4375 228.222656 C 120.4375 221.980469 125.5 216.921875 131.746094 216.921875 L 250.578125 216.921875 C 256.820312 216.921875 261.878906 221.980469 261.878906 228.222656 C 261.878906 234.46875 256.820312 239.527344 250.578125 239.527344 " fill-opacity="1" fill-rule="nonzero"/><path fill="#e6684c" d="M 134.394531 228.253906 L 134.394531 228.195312 C 134.394531 221.96875 139.441406 216.921875 145.671875 216.921875 L 139.035156 216.921875 C 132.808594 216.921875 127.757812 221.96875 127.757812 228.195312 L 127.757812 228.253906 C 127.757812 234.480469 132.808594 239.527344 139.035156 239.527344 L 145.671875 239.527344 C 139.441406 239.527344 134.394531 234.480469 134.394531 228.253906 " fill-opacity="1" fill-rule="nonzero"/><path fill="#e6684c" d="M 188.210938 228.253906 L 188.210938 228.195312 C 188.210938 221.96875 193.257812 216.921875 199.484375 216.921875 L 192.847656 216.921875 C 186.625 216.921875 181.574219 221.96875 181.574219 228.195312 L 181.574219 228.253906 C 181.574219 234.480469 186.625 239.527344 192.847656 239.527344 L 199.484375 239.527344 C 193.257812 239.527344 188.210938 234.480469 188.210938 228.253906 " fill-opacity="1" fill-rule="nonzero"/><path fill="#fde3b9" d="M 270.105469 228.222656 C 270.105469 223.914062 273.789062 220.308594 278.734375 219.378906 C 277.925781 219.226562 277.089844 219.144531 276.230469 219.144531 L 209.613281 219.144531 C 203.464844 219.144531 198.480469 223.210938 198.480469 228.222656 C 198.480469 233.238281 203.464844 237.304688 209.613281 237.304688 L 276.230469 237.304688 C 277.089844 237.304688 277.925781 237.222656 278.734375 237.070312 C 273.789062 236.144531 270.105469 232.535156 270.105469 228.222656 " fill-opacity="1" fill-rule="nonzero"/><path fill="#c9b593" d="M 276.230469 237.304688 C 277.089844 237.304688 277.925781 237.222656 278.734375 237.070312 C 278.410156 237.011719 278.097656 236.9375 277.785156 236.855469 L 211.90625 236.855469 C 207.265625 236.855469 203.496094 233.78125 203.496094 229.996094 C 203.496094 226.21875 207.265625 223.144531 211.90625 223.144531 L 272.011719 223.144531 C 273.566406 221.273438 275.949219 219.902344 278.734375 219.378906 C 277.925781 219.226562 277.089844 219.144531 276.230469 219.144531 L 209.613281 219.144531 C 208.8125 219.144531 208.027344 219.214844 207.273438 219.347656 C 203.128906 220.550781 199.886719 223.316406 198.621094 226.773438 C 198.53125 227.246094 198.480469 227.730469 198.480469 228.222656 C 198.480469 233.238281 203.464844 237.304688 209.613281 237.304688 L 276.230469 237.304688 " fill-opacity="1" fill-rule="nonzero"/><path fill="#c9b593" d="M 270.914062 224.9375 L 213.496094 224.9375 C 213.433594 224.9375 213.378906 224.886719 213.378906 224.820312 C 213.378906 224.757812 213.433594 224.703125 213.496094 224.703125 L 270.914062 224.703125 C 270.976562 224.703125 271.03125 224.757812 271.03125 224.820312 C 271.03125 224.886719 270.976562 224.9375 270.914062 224.9375 " fill-opacity="1" fill-rule="nonzero"/><path fill="#c9b593" d="M 263.972656 227.058594 L 219.078125 227.058594 C 219.011719 227.058594 218.960938 227.007812 218.960938 226.945312 C 218.960938 226.878906 219.011719 226.828125 219.078125 226.828125 L 263.972656 226.828125 C 264.039062 226.828125 264.089844 226.878906 264.089844 226.945312 C 264.089844 227.007812 264.039062 227.058594 263.972656 227.058594 " fill-opacity="1" fill-rule="nonzero"/><path fill="#c9b593" d="M 271.453125 232.644531 L 210.652344 232.644531 C 210.589844 232.644531 210.539062 232.589844 210.539062 232.527344 C 210.539062 232.464844 210.589844 232.414062 210.652344 232.414062 L 271.453125 232.414062 C 271.519531 232.414062 271.570312 232.464844 271.570312 232.527344 C 271.570312 232.589844 271.519531 232.644531 271.453125 232.644531 " fill-opacity="1" fill-rule="nonzero"/><path fill="#c9b593" d="M 268.792969 230.445312 L 231.035156 230.445312 C 230.96875 230.445312 230.917969 230.394531 230.917969 230.332031 C 230.917969 230.265625 230.96875 230.214844 231.035156 230.214844 L 268.792969 230.214844 C 268.855469 230.214844 268.90625 230.265625 268.90625 230.332031 C 268.90625 230.394531 268.855469 230.445312 268.792969 230.445312 " fill-opacity="1" fill-rule="nonzero"/><path fill="#c9b593" d="M 253.230469 228.351562 L 206.71875 228.351562 C 206.652344 228.351562 206.601562 228.296875 206.601562 228.234375 C 206.601562 228.171875 206.652344 228.121094 206.71875 228.121094 L 253.230469 228.121094 C 253.292969 228.121094 253.34375 228.171875 253.34375 228.234375 C 253.34375 228.296875 253.292969 228.351562 253.230469 228.351562 " fill-opacity="1" fill-rule="nonzero"/><path fill="#e6684c" d="M 276.230469 239.527344 L 209.613281 239.527344 C 201.972656 239.527344 195.753906 234.457031 195.753906 228.222656 C 195.753906 221.992188 201.972656 216.921875 209.613281 216.921875 L 276.230469 216.921875 C 277.734375 216.921875 278.953125 217.917969 278.953125 219.144531 C 278.953125 220.371094 277.734375 221.367188 276.230469 221.367188 L 209.613281 221.367188 C 204.976562 221.367188 201.203125 224.445312 201.203125 228.222656 C 201.203125 232.003906 204.976562 235.082031 209.613281 235.082031 L 276.230469 235.082031 C 277.734375 235.082031 278.953125 236.078125 278.953125 237.304688 C 278.953125 238.53125 277.734375 239.527344 276.230469 239.527344 " fill-opacity="1" fill-rule="nonzero"/><path fill="#e6684c" d="M 176.957031 232.066406 C 176.527344 230.875 176.292969 229.589844 176.292969 228.253906 L 176.292969 228.195312 C 176.292969 226.867188 176.527344 225.589844 176.949219 224.40625 L 169.125 224.40625 C 168.71875 225.589844 168.5 226.867188 168.5 228.195312 L 168.5 228.253906 C 168.5 229.589844 168.734375 230.875 169.160156 232.066406 L 176.957031 232.066406 " fill-opacity="1" fill-rule="nonzero"/><path fill="#63aaba" d="M 269.476562 216.921875 L 149.089844 216.921875 C 143.074219 216.921875 138.199219 212.046875 138.199219 206.035156 L 138.199219 205.207031 C 138.199219 199.195312 143.074219 194.320312 149.089844 194.320312 L 269.476562 194.320312 C 275.488281 194.320312 280.367188 199.195312 280.367188 205.207031 L 280.367188 206.035156 C 280.367188 212.046875 275.488281 216.921875 269.476562 216.921875 " fill-opacity="1" fill-rule="nonzero"/><path fill="#fde3b9" d="M 280.480469 205.621094 C 280.480469 202.019531 283.054688 198.90625 286.785156 197.441406 C 287.261719 197.253906 287.140625 196.542969 286.628906 196.542969 C 286.621094 196.542969 286.609375 196.542969 286.605469 196.542969 L 219.988281 196.542969 C 213.839844 196.542969 208.855469 200.605469 208.855469 205.621094 C 208.855469 210.636719 213.839844 214.699219 219.988281 214.699219 L 286.605469 214.699219 C 286.609375 214.699219 286.621094 214.699219 286.628906 214.699219 C 287.140625 214.699219 287.261719 213.988281 286.785156 213.800781 C 283.054688 212.335938 280.480469 209.222656 280.480469 205.621094 " fill-opacity="1" fill-rule="nonzero"/><path fill="#c9b593" d="M 222.078125 214.335938 C 217.441406 214.335938 213.667969 211.257812 213.667969 207.476562 C 213.667969 203.699219 217.441406 200.621094 222.078125 200.621094 L 282.320312 200.621094 C 283.425781 199.257812 284.96875 198.152344 286.785156 197.441406 C 287.261719 197.253906 287.140625 196.542969 286.628906 196.542969 C 286.621094 196.542969 286.609375 196.542969 286.605469 196.542969 L 219.988281 196.542969 C 219.265625 196.542969 218.5625 196.601562 217.878906 196.707031 C 213.984375 197.71875 210.832031 200.097656 209.273438 203.148438 C 209.003906 203.933594 208.855469 204.765625 208.855469 205.621094 C 208.855469 210.636719 213.839844 214.699219 219.988281 214.699219 L 286.605469 214.699219 C 286.609375 214.699219 286.621094 214.699219 286.628906 214.699219 C 286.878906 214.699219 287.035156 214.53125 287.074219 214.335938 L 222.078125 214.335938 " fill-opacity="1" fill-rule="nonzero"/><path fill="#c9b593" d="M 276.769531 202.796875 L 224.160156 202.796875 C 224.097656 202.796875 224.042969 202.746094 224.042969 202.683594 C 224.042969 202.617188 224.097656 202.566406 224.160156 202.566406 L 276.769531 202.566406 C 276.835938 202.566406 276.886719 202.617188 276.886719 202.683594 C 276.886719 202.746094 276.835938 202.796875 276.769531 202.796875 " fill-opacity="1" fill-rule="nonzero"/><path fill="#c9b593" d="M 257.179688 204.6875 L 218.394531 204.6875 C 218.328125 204.6875 218.277344 204.636719 218.277344 204.570312 C 218.277344 204.507812 218.328125 204.453125 218.394531 204.453125 L 257.179688 204.453125 C 257.242188 204.453125 257.296875 204.507812 257.296875 204.570312 C 257.296875 204.636719 257.242188 204.6875 257.179688 204.6875 " fill-opacity="1" fill-rule="nonzero"/><path fill="#c9b593" d="M 282.0625 210.738281 L 237.035156 210.738281 C 236.972656 210.738281 236.921875 210.6875 236.921875 210.621094 C 236.921875 210.558594 236.972656 210.503906 237.035156 210.503906 L 282.0625 210.503906 C 282.125 210.503906 282.179688 210.558594 282.179688 210.621094 C 282.179688 210.6875 282.125 210.738281 282.0625 210.738281 " fill-opacity="1" fill-rule="nonzero"/><path fill="#c9b593" d="M 271.453125 208.757812 L 223.003906 208.757812 C 222.941406 208.757812 222.886719 208.707031 222.886719 208.644531 C 222.886719 208.578125 222.941406 208.527344 223.003906 208.527344 L 271.453125 208.527344 C 271.519531 208.527344 271.570312 208.578125 271.570312 208.644531 C 271.570312 208.707031 271.519531 208.757812 271.453125 208.757812 " fill-opacity="1" fill-rule="nonzero"/><path fill="#c9b593" d="M 280.492188 206.269531 L 230.636719 206.269531 C 230.574219 206.269531 230.523438 206.21875 230.523438 206.152344 C 230.523438 206.089844 230.574219 206.035156 230.636719 206.035156 L 280.492188 206.035156 C 280.558594 206.035156 280.609375 206.089844 280.609375 206.152344 C 280.609375 206.21875 280.558594 206.269531 280.492188 206.269531 " fill-opacity="1" fill-rule="nonzero"/><path fill="#abd0d9" d="M 286.605469 216.921875 L 219.988281 216.921875 C 212.347656 216.921875 206.128906 211.851562 206.128906 205.621094 C 206.128906 199.390625 212.347656 194.320312 219.988281 194.320312 L 286.605469 194.320312 C 288.109375 194.320312 289.328125 195.3125 289.328125 196.542969 C 289.328125 197.769531 288.109375 198.765625 286.605469 198.765625 L 219.988281 198.765625 C 215.351562 198.765625 211.582031 201.839844 211.582031 205.621094 C 211.582031 209.402344 215.351562 212.476562 219.988281 212.476562 L 286.605469 212.476562 C 288.109375 212.476562 289.328125 213.472656 289.328125 214.699219 C 289.328125 215.929688 288.109375 216.921875 286.605469 216.921875 " fill-opacity="1" fill-rule="nonzero"/><path fill="#abd0d9" d="M 198.84375 210.125 L 151.921875 210.125 C 149.433594 210.125 147.417969 208.105469 147.417969 205.621094 C 147.417969 203.136719 149.433594 201.117188 151.921875 201.117188 L 198.84375 201.117188 C 201.328125 201.117188 203.347656 203.136719 203.347656 205.621094 C 203.347656 208.105469 201.328125 210.125 198.84375 210.125 " fill-opacity="1" fill-rule="nonzero"/><path fill="#e3cba6" d="M 154.132812 185.308594 C 154.132812 181.867188 150.546875 178.988281 145.734375 178.25 C 146.519531 178.132812 147.332031 178.0625 148.171875 178.0625 L 256.859375 178.0625 C 262.84375 178.0625 267.699219 181.308594 267.699219 185.308594 C 267.699219 189.304688 262.84375 192.546875 256.859375 192.546875 L 148.171875 192.546875 C 147.332031 192.546875 146.519531 192.480469 145.734375 192.359375 C 150.546875 191.621094 154.132812 188.742188 154.132812 185.308594 " fill-opacity="1" fill-rule="nonzero"/><path fill="#bca686" d="M 145.734375 178.25 C 148.324219 178.648438 150.558594 179.667969 152.066406 181.058594 L 229.417969 181.058594 C 233.933594 181.058594 237.605469 183.511719 237.605469 186.523438 C 237.605469 189.539062 233.933594 191.992188 229.417969 191.992188 L 147.445312 191.992188 C 146.898438 192.144531 146.324219 192.269531 145.734375 192.359375 C 146.519531 192.480469 147.332031 192.546875 148.171875 192.546875 L 239.449219 192.546875 C 241.601562 190.949219 242.914062 188.839844 242.914062 186.523438 C 242.914062 182.648438 239.226562 179.335938 234.078125 178.0625 L 148.171875 178.0625 C 147.332031 178.0625 146.519531 178.132812 145.734375 178.25 " fill-opacity="1" fill-rule="nonzero"/><path fill="#ffc14d" d="M 148.386719 194.320312 L 257.070312 194.320312 C 264.511719 194.320312 270.566406 190.277344 270.566406 185.308594 C 270.566406 180.335938 264.511719 176.292969 257.070312 176.292969 L 148.386719 176.292969 C 146.921875 176.292969 145.734375 177.085938 145.734375 178.0625 C 145.734375 179.042969 146.921875 179.839844 148.386719 179.839844 L 257.070312 179.839844 C 261.585938 179.839844 265.257812 182.292969 265.257812 185.308594 C 265.257812 188.324219 261.585938 190.777344 257.070312 190.777344 L 148.386719 190.777344 C 146.921875 190.777344 145.734375 191.566406 145.734375 192.546875 C 145.734375 193.523438 146.921875 194.320312 148.386719 194.320312 " fill-opacity="1" fill-rule="nonzero"/><path fill="#bca686" d="M 224.980469 185.265625 L 157.726562 185.265625 C 157.660156 185.265625 157.605469 185.210938 157.605469 185.144531 C 157.605469 185.078125 157.660156 185.023438 157.726562 185.023438 L 224.980469 185.023438 C 225.050781 185.023438 225.105469 185.078125 225.105469 185.144531 C 225.105469 185.210938 225.050781 185.265625 224.980469 185.265625 " fill-opacity="1" fill-rule="nonzero"/><path fill="#bca686" d="M 218.296875 183.828125 L 166.101562 183.828125 C 166.03125 183.828125 165.980469 183.773438 165.980469 183.710938 C 165.980469 183.640625 166.03125 183.589844 166.101562 183.589844 L 218.296875 183.589844 C 218.359375 183.589844 218.417969 183.640625 218.417969 183.710938 C 218.417969 183.773438 218.359375 183.828125 218.296875 183.828125 " fill-opacity="1" fill-rule="nonzero"/><path fill="#bca686" d="M 209.421875 186.980469 L 161.125 186.980469 C 161.058594 186.980469 161.003906 186.925781 161.003906 186.859375 C 161.003906 186.792969 161.058594 186.738281 161.125 186.738281 L 209.421875 186.738281 C 209.492188 186.738281 209.542969 186.792969 209.542969 186.859375 C 209.542969 186.925781 209.492188 186.980469 209.421875 186.980469 " fill-opacity="1" fill-rule="nonzero"/><path fill="#bca686" d="M 217.210938 188.488281 L 153.191406 188.488281 C 153.125 188.488281 153.070312 188.433594 153.070312 188.367188 C 153.070312 188.300781 153.125 188.246094 153.191406 188.246094 L 217.210938 188.246094 C 217.273438 188.246094 217.332031 188.300781 217.332031 188.367188 C 217.332031 188.433594 217.273438 188.488281 217.210938 188.488281 " fill-opacity="1" fill-rule="nonzero"/><path fill="#bca686" d="M 222.769531 189.546875 L 155.4375 189.546875 C 155.371094 189.546875 155.3125 189.492188 155.3125 189.425781 C 155.3125 189.359375 155.371094 189.304688 155.4375 189.304688 L 222.769531 189.304688 C 222.839844 189.304688 222.890625 189.359375 222.890625 189.425781 C 222.890625 189.492188 222.839844 189.546875 222.769531 189.546875 " fill-opacity="1" fill-rule="nonzero"/><path fill="#bca686" d="M 200.226562 182.464844 L 153.191406 182.464844 C 153.125 182.464844 153.070312 182.410156 153.070312 182.34375 C 153.070312 182.277344 153.125 182.222656 153.191406 182.222656 L 200.226562 182.222656 C 200.292969 182.222656 200.34375 182.277344 200.34375 182.34375 C 200.34375 182.410156 200.292969 182.464844 200.226562 182.464844 " fill-opacity="1" fill-rule="nonzero"/><path fill="#fde3b9" d="M 226.914062 185.308594 C 226.914062 181.867188 223.320312 178.988281 218.507812 178.25 C 219.292969 178.132812 220.109375 178.0625 220.949219 178.0625 L 271.75 178.0625 C 277.738281 178.0625 282.589844 181.308594 282.589844 185.308594 C 282.589844 189.304688 277.738281 192.546875 271.75 192.546875 L 220.949219 192.546875 C 220.109375 192.546875 219.292969 192.480469 218.507812 192.359375 C 223.320312 191.621094 226.914062 188.742188 226.914062 185.308594 " fill-opacity="1" fill-rule="nonzero"/><path fill="#c9b593" d="M 282.589844 185.308594 C 282.589844 181.308594 277.738281 178.0625 271.75 178.0625 L 220.949219 178.0625 C 220.109375 178.0625 219.292969 178.132812 218.507812 178.25 C 221.082031 178.644531 223.308594 179.652344 224.820312 181.03125 L 269.910156 181.03125 C 274.421875 181.03125 278.097656 183.484375 278.097656 186.5 C 278.097656 189.515625 274.421875 191.96875 269.910156 191.96875 L 220.316406 191.96875 C 219.738281 192.128906 219.132812 192.265625 218.507812 192.359375 C 219.292969 192.480469 220.109375 192.546875 220.949219 192.546875 L 271.75 192.546875 C 277.738281 192.546875 282.589844 189.304688 282.589844 185.308594 " fill-opacity="1" fill-rule="nonzero"/><path fill="#c9b593" d="M 267.699219 182.664062 L 226.0625 182.664062 C 226 182.664062 225.945312 182.613281 225.945312 182.546875 C 225.945312 182.484375 226 182.433594 226.0625 182.433594 L 267.699219 182.433594 C 267.761719 182.433594 267.816406 182.484375 267.816406 182.546875 C 267.816406 182.613281 267.761719 182.664062 267.699219 182.664062 " fill-opacity="1" fill-rule="nonzero"/><path fill="#c9b593" d="M 274.875 184.257812 L 232.375 184.257812 C 232.3125 184.257812 232.261719 184.207031 232.261719 184.140625 C 232.261719 184.078125 232.3125 184.027344 232.375 184.027344 L 274.875 184.027344 C 274.941406 184.027344 274.992188 184.078125 274.992188 184.140625 C 274.992188 184.207031 274.941406 184.257812 274.875 184.257812 " fill-opacity="1" fill-rule="nonzero"/><path fill="#c9b593" d="M 270.203125 186.628906 L 228.425781 186.628906 C 228.363281 186.628906 228.3125 186.578125 228.3125 186.511719 C 228.3125 186.449219 228.363281 186.394531 228.425781 186.394531 L 270.203125 186.394531 C 270.265625 186.394531 270.316406 186.449219 270.316406 186.511719 C 270.316406 186.578125 270.265625 186.628906 270.203125 186.628906 " fill-opacity="1" fill-rule="nonzero"/><path fill="#c9b593" d="M 261.207031 188.847656 L 225.597656 188.847656 C 225.53125 188.847656 225.480469 188.796875 225.480469 188.730469 C 225.480469 188.667969 225.53125 188.617188 225.597656 188.617188 L 261.207031 188.617188 C 261.273438 188.617188 261.324219 188.667969 261.324219 188.730469 C 261.324219 188.796875 261.273438 188.847656 261.207031 188.847656 " fill-opacity="1" fill-rule="nonzero"/><path fill="#ffd085" d="M 220.949219 194.320312 L 271.75 194.320312 C 279.191406 194.320312 285.246094 190.277344 285.246094 185.308594 C 285.246094 180.335938 279.191406 176.292969 271.75 176.292969 L 220.949219 176.292969 C 219.484375 176.292969 218.296875 177.085938 218.296875 178.0625 C 218.296875 179.042969 219.484375 179.839844 220.949219 179.839844 L 271.75 179.839844 C 276.265625 179.839844 279.9375 182.292969 279.9375 185.308594 C 279.9375 188.324219 276.265625 190.777344 271.75 190.777344 L 220.949219 190.777344 C 219.484375 190.777344 218.296875 191.566406 218.296875 192.546875 C 218.296875 193.523438 219.484375 194.320312 220.949219 194.320312 " fill-opacity="1" fill-rule="nonzero"/><g clip-path="url(#81dc42c72d)"><path fill="#7b6594" d="M 304.171875 158.914062 L 337.664062 263.488281 C 338.210938 265.195312 337.273438 267.023438 335.566406 267.566406 L 317.835938 273.246094 C 316.128906 273.789062 314.300781 272.847656 313.753906 271.144531 L 280.265625 166.570312 C 279.71875 164.863281 280.660156 163.039062 282.367188 162.492188 L 300.09375 156.816406 C 301.800781 156.265625 303.628906 157.207031 304.171875 158.914062 " fill-opacity="1" fill-rule="nonzero"/></g><path fill="#625075" d="M 335.269531 256.015625 L 332.585938 247.636719 L 308.679688 255.292969 L 311.363281 263.667969 L 335.269531 256.015625 " fill-opacity="1" fill-rule="nonzero"/><path fill="#625075" d="M 309.882812 176.742188 L 307.199219 168.363281 L 283.292969 176.019531 L 285.972656 184.398438 L 309.882812 176.742188 " fill-opacity="1" fill-rule="nonzero"/><path fill="#625075" d="M 304.453125 185.3125 L 322.316406 241.085938 C 322.683594 242.238281 322.046875 243.472656 320.894531 243.839844 L 315.992188 245.414062 C 314.839844 245.78125 313.605469 245.144531 313.234375 243.992188 L 295.371094 188.21875 C 295.003906 187.0625 295.640625 185.832031 296.792969 185.460938 L 301.695312 183.894531 C 302.851562 183.523438 304.082031 184.15625 304.453125 185.3125 " fill-opacity="1" fill-rule="nonzero"/><path fill="#ee9775" d="M 223.027344 234.1875 C 221.53125 233.511719 218.855469 236.546875 217.378906 236.457031 C 217.003906 236.4375 214.71875 235.566406 211.480469 234.261719 C 211.125 234.890625 210.757812 235.648438 210.621094 236.285156 C 210.484375 236.941406 210.246094 238.171875 210.023438 239.304688 C 209.464844 239.320312 215.089844 239.132812 216.363281 239.074219 C 216.761719 239.054688 217.152344 239.136719 217.511719 239.304688 C 218.277344 239.664062 219.738281 240.148438 220.519531 239.082031 C 221.839844 237.28125 223.90625 234.582031 223.027344 234.1875 " fill-opacity="1" fill-rule="nonzero"/><path fill="#2b2333" d="M 223.027344 234.1875 C 222.203125 233.8125 221.019531 234.570312 219.875 235.308594 C 219.792969 235.980469 219.617188 236.847656 219.242188 237.511719 C 218.792969 238.304688 217.855469 238.878906 217.226562 239.191406 C 217.324219 239.222656 217.425781 239.246094 217.511719 239.304688 C 218.308594 239.828125 219.78125 240.308594 220.5625 239.242188 C 221.878906 237.441406 223.90625 234.582031 223.027344 234.1875 " fill-opacity="1" fill-rule="nonzero"/><path fill="#7b6594" d="M 182.566406 221.988281 C 176.101562 218.542969 154.109375 216.824219 154.109375 216.824219 C 154.109375 216.824219 144.324219 215.359375 140.578125 223.347656 C 138 228.835938 139.734375 234.539062 146.015625 234.710938 C 152.265625 234.882812 176.324219 233.371094 181.699219 237.027344 C 185.410156 239.550781 201.1875 240.457031 210.378906 240.210938 C 210.269531 239.058594 210.574219 237.90625 210.84375 236.730469 C 211.148438 235.390625 211.628906 234.714844 211.984375 234.089844 C 202.421875 230.242188 184.050781 222.78125 182.566406 221.988281 " fill-opacity="1" fill-rule="nonzero"/><path fill="#463954" d="M 210.550781 238.160156 C 210.546875 238.160156 210.542969 238.160156 210.539062 238.160156 C 210.449219 238.148438 201.671875 237.242188 195.417969 236.445312 C 190.226562 235.777344 178.042969 231.261719 177.917969 231.21875 C 177.855469 231.191406 177.824219 231.125 177.847656 231.0625 C 177.871094 231 177.941406 230.96875 178.003906 230.988281 C 178.125 231.035156 190.285156 235.542969 195.449219 236.203125 C 201.699219 237.003906 210.476562 237.910156 210.5625 237.917969 C 210.628906 237.925781 210.675781 237.984375 210.667969 238.054688 C 210.664062 238.113281 210.609375 238.160156 210.550781 238.160156 " fill-opacity="1" fill-rule="nonzero"/><path fill="#463954" d="M 186.050781 238.539062 C 184.097656 238.117188 182.566406 237.617188 181.699219 237.027344 C 176.324219 233.371094 152.265625 234.878906 146.015625 234.710938 C 140.320312 234.554688 138.367188 229.859375 139.964844 224.894531 C 142.054688 222.765625 144.996094 221.980469 146.785156 221.75 C 150.980469 221.214844 172.640625 221.832031 179.457031 226.976562 C 181.863281 228.796875 184.140625 233.324219 186.050781 238.539062 " fill-opacity="1" fill-rule="nonzero"/><path fill="#7b6594" d="M 185.5 257.925781 C 186.019531 257.710938 187.589844 257.121094 188.257812 256.800781 C 186.679688 248.027344 182.078125 231.410156 176.875 227.480469 C 170.058594 222.332031 148.367188 220.851562 144.175781 221.390625 C 140.785156 221.824219 133.375 227.335938 135.113281 231.609375 C 135.113281 231.609375 138.085938 240.890625 152.949219 239.367188 C 165.167969 238.117188 166.949219 236.035156 167.921875 236.179688 C 168.898438 236.320312 168.101562 238.0625 170.785156 242.773438 C 172.648438 246.046875 178.882812 254.285156 182.621094 259.183594 C 182.617188 259.179688 184.734375 258.238281 185.5 257.925781 " fill-opacity="1" fill-rule="nonzero"/><path fill="#463954" d="M 184.414062 258.261719 C 184.367188 258.261719 184.328125 258.238281 184.304688 258.195312 C 184.191406 257.957031 172.898438 234.378906 169.824219 232.917969 C 167.078125 231.609375 164.199219 232.308594 160.554688 233.203125 C 157.84375 233.867188 154.765625 234.617188 150.925781 234.800781 C 141.816406 235.234375 138.773438 228.402344 138.746094 228.332031 C 138.71875 228.269531 138.75 228.199219 138.808594 228.171875 C 138.871094 228.144531 138.941406 228.175781 138.964844 228.234375 C 138.996094 228.304688 141.972656 234.976562 150.917969 234.558594 C 154.734375 234.375 157.792969 233.628906 160.496094 232.96875 C 164.191406 232.066406 167.105469 231.351562 169.925781 232.699219 C 173.078125 234.203125 184.054688 257.113281 184.523438 258.089844 C 184.554688 258.148438 184.527344 258.222656 184.464844 258.253906 C 184.449219 258.257812 184.429688 258.261719 184.414062 258.261719 " fill-opacity="1" fill-rule="nonzero"/><path fill="#ee9775" d="M 188.183594 262.273438 C 188.117188 261.742188 187.828125 259.804688 187.339844 257.09375 C 186.671875 257.410156 186.019531 257.710938 185.5 257.925781 C 184.734375 258.238281 183.886719 258.453125 183.160156 258.59375 C 184.800781 260.75 185.859375 262.371094 185.644531 262.855469 C 185.230469 263.804688 184.304688 264.230469 185.285156 265.316406 C 185.871094 265.96875 191.230469 268.871094 191.449219 267.492188 C 191.664062 266.117188 188.472656 264.519531 188.183594 262.273438 " fill-opacity="1" fill-rule="nonzero"/><path fill="#2b2333" d="M 191.621094 267.554688 C 191.738281 266.804688 190.671875 265.925781 189.789062 264.976562 C 189.328125 264.96875 188.652344 264.890625 187.867188 264.585938 C 186.972656 264.238281 186.046875 263.625 185.460938 263.203125 C 184.71875 263.851562 184.253906 264.386719 185.101562 265.332031 C 185.691406 265.984375 191.402344 268.933594 191.621094 267.554688 " fill-opacity="1" fill-rule="nonzero"/><path fill="#ffc14d" d="M 177.023438 219.714844 C 174.296875 218.691406 160.230469 218.171875 155.066406 213.777344 C 154.519531 213.316406 153.882812 212.738281 153.1875 212.078125 C 150.253906 209.292969 146.316406 204.96875 144.039062 200.777344 C 141.785156 196.625 141.160156 192.605469 144.773438 190.355469 C 144.820312 190.320312 144.875 190.289062 144.929688 190.257812 C 145.996094 189.625 147.089844 189.320312 148.183594 189.375 C 150.929688 189.515625 153.703125 191.929688 156.203125 197.210938 C 157.941406 200.882812 158.644531 205.105469 162.023438 208.234375 C 168.234375 213.988281 177.894531 217.65625 177.894531 217.65625 C 177.894531 217.65625 178.132812 220.128906 177.023438 219.714844 " fill-opacity="1" fill-rule="nonzero"/><path fill="#99341d" d="M 174.382812 215.554688 C 174.535156 215.675781 174.578125 215.890625 174.488281 216.0625 C 174.257812 216.5 174.027344 217.371094 173.933594 217.757812 C 173.851562 218.105469 173.75 218.769531 173.707031 219.164062 C 173.683594 219.386719 173.488281 219.546875 173.265625 219.527344 L 171.769531 219.351562 C 171.523438 219.332031 171.347656 219.101562 171.398438 218.855469 C 171.503906 218.386719 171.675781 217.628906 171.859375 216.886719 C 172.050781 216.109375 172.453125 215.261719 172.714844 214.761719 C 172.832031 214.527344 173.136719 214.460938 173.335938 214.628906 L 174.382812 215.554688 " fill-opacity="1" fill-rule="nonzero"/><path fill="#c7922f" d="M 153.1875 212.078125 C 150.253906 209.292969 146.316406 204.96875 144.039062 200.777344 C 142.234375 196.488281 141.71875 192.304688 144.773438 190.355469 C 144.820312 190.320312 144.875 190.289062 144.929688 190.257812 C 145.996094 189.625 147.089844 189.320312 148.183594 189.375 C 149.035156 189.597656 148.847656 190.710938 149.628906 191 C 152.324219 194.972656 153.101562 205.488281 153.1875 212.078125 " fill-opacity="1" fill-rule="nonzero"/><path fill="#ffc14d" d="M 184.335938 223.226562 C 184.300781 223.691406 183.910156 224.050781 183.441406 224.050781 L 180.460938 224.050781 C 180.003906 224.050781 179.617188 223.707031 179.566406 223.25 L 178.726562 215.480469 L 184.96875 215.480469 L 184.335938 223.226562 " fill-opacity="1" fill-rule="nonzero"/><path fill="#c7922f" d="M 178.792969 216.085938 L 184.917969 216.085938 L 184.96875 215.480469 L 178.726562 215.480469 L 178.792969 216.085938 " fill-opacity="1" fill-rule="nonzero"/><path fill="#c7922f" d="M 178.707031 217.644531 L 178.964844 220.101562 C 178.976562 220.210938 179.058594 220.304688 179.171875 220.320312 C 179.980469 220.453125 180.960938 220.554688 182.03125 220.554688 C 183.03125 220.554688 183.914062 220.457031 184.65625 220.328125 C 184.765625 220.304688 184.847656 220.210938 184.855469 220.097656 L 185.050781 217.644531 C 185.0625 217.472656 184.910156 217.34375 184.746094 217.382812 C 184.066406 217.539062 183.148438 217.683594 182.03125 217.683594 C 180.835938 217.683594 179.769531 217.527344 179.003906 217.375 C 178.839844 217.34375 178.6875 217.476562 178.707031 217.644531 " fill-opacity="1" fill-rule="nonzero"/><path fill="#fde3b9" d="M 184.640625 215.285156 L 179.050781 215.285156 C 178.699219 215.285156 178.417969 215.003906 178.417969 214.65625 C 178.417969 214.308594 178.699219 214.023438 179.050781 214.023438 L 184.640625 214.023438 C 184.992188 214.023438 185.273438 214.308594 185.273438 214.65625 C 185.273438 215.003906 184.992188 215.285156 184.640625 215.285156 " fill-opacity="1" fill-rule="nonzero"/><path fill="#fde3b9" d="M 185.292969 215.738281 L 178.398438 215.738281 C 178.089844 215.738281 177.839844 215.488281 177.839844 215.179688 C 177.839844 214.871094 178.089844 214.621094 178.398438 214.621094 L 185.292969 214.621094 C 185.601562 214.621094 185.851562 214.871094 185.851562 215.179688 C 185.851562 215.488281 185.601562 215.738281 185.292969 215.738281 " fill-opacity="1" fill-rule="nonzero"/><path fill="#ee9775" d="M 177.191406 217.804688 C 177.191406 217.804688 177.914062 217.558594 178.863281 217.390625 L 179.015625 219.535156 C 179.101562 219.980469 179.679688 219.929688 180.242188 220.464844 C 181.144531 221.324219 178.3125 220.535156 177.507812 220.039062 C 176.703125 219.546875 176.25 218.015625 177.191406 217.804688 " fill-opacity="1" fill-rule="nonzero"/><path fill="#ee9775" d="M 174.410156 216.140625 L 173.964844 217.15625 C 173.855469 217.503906 173.644531 218.332031 173.46875 219.015625 C 175.105469 219.257812 176.378906 219.472656 177.023438 219.714844 C 178.132812 220.128906 177.894531 217.652344 177.894531 217.652344 C 177.894531 217.652344 176.488281 217.121094 174.410156 216.140625 " fill-opacity="1" fill-rule="nonzero"/><path fill="#c7922f" d="M 135.101562 185.679688 C 135.101562 185.679688 138.316406 185.15625 139.957031 185.234375 C 141.597656 185.308594 142.652344 185.902344 142.652344 185.902344 L 143.039062 188.882812 L 133.207031 189.785156 L 135.101562 185.679688 " fill-opacity="1" fill-rule="nonzero"/><path fill="#d94929" d="M 151.429688 222.90625 C 150.878906 223.039062 148.753906 221.9375 148.753906 221.9375 C 148.753906 221.9375 149.238281 223.574219 148.949219 223.6875 C 140.457031 227.066406 137.984375 235.683594 136.214844 234.09375 C 135.003906 233.007812 132.621094 229.019531 130.621094 224.832031 C 130.621094 224.832031 130.621094 224.832031 130.621094 224.828125 C 129.417969 222.320312 128.355469 219.738281 127.761719 217.664062 C 127.722656 217.53125 127.6875 217.390625 127.640625 217.242188 C 127.601562 217.105469 127.566406 216.964844 127.523438 216.820312 C 127.519531 216.808594 127.515625 216.792969 127.511719 216.773438 C 127.488281 216.695312 127.464844 216.609375 127.441406 216.527344 C 127.25 215.847656 127.035156 215.058594 126.800781 214.1875 C 126.765625 214.042969 126.722656 213.894531 126.683594 213.746094 C 126.636719 213.5625 126.585938 213.367188 126.535156 213.171875 C 124.5 205.351562 121.6875 192.359375 124.9375 189.996094 C 128.96875 187.074219 137.269531 187.261719 139.050781 187.261719 C 140.835938 187.261719 149.722656 188.601562 150.988281 190.96875 C 152.25 193.339844 151.460938 202.027344 151.695312 209.925781 C 151.933594 217.824219 157.570312 217.15625 157.570312 217.15625 C 157.570312 217.15625 158.820312 221.148438 151.429688 222.90625 " fill-opacity="1" fill-rule="nonzero"/><path fill="#99341d" d="M 148.753906 222.054688 C 148.71875 222.054688 148.679688 222.039062 148.65625 222.007812 C 144.515625 216.179688 143.695312 210.359375 142.914062 202.152344 C 142.167969 194.277344 139.300781 191.421875 139.273438 191.390625 C 139.222656 191.34375 139.222656 191.269531 139.265625 191.222656 C 139.3125 191.171875 139.390625 191.171875 139.4375 191.21875 C 139.558594 191.335938 142.398438 194.152344 143.15625 202.128906 C 143.933594 210.296875 144.75 216.085938 148.851562 221.867188 C 148.890625 221.917969 148.878906 221.992188 148.824219 222.03125 C 148.804688 222.046875 148.777344 222.054688 148.753906 222.054688 " fill-opacity="1" fill-rule="nonzero"/><path fill="#ffc14d" d="M 141.585938 192.390625 C 141.585938 192.589844 141.425781 192.746094 141.230469 192.746094 C 141.035156 192.746094 140.875 192.589844 140.875 192.390625 C 140.875 192.195312 141.035156 192.035156 141.230469 192.035156 C 141.425781 192.035156 141.585938 192.195312 141.585938 192.390625 " fill-opacity="1" fill-rule="nonzero"/><path fill="#ffc14d" d="M 143.082031 196.027344 C 143.082031 196.21875 142.921875 196.378906 142.726562 196.378906 C 142.53125 196.378906 142.371094 196.21875 142.371094 196.027344 C 142.371094 195.828125 142.53125 195.667969 142.726562 195.667969 C 142.921875 195.667969 143.082031 195.828125 143.082031 196.027344 " fill-opacity="1" fill-rule="nonzero"/><path fill="#ffc14d" d="M 144.054688 200.328125 C 144.054688 200.523438 143.894531 200.683594 143.699219 200.683594 C 143.503906 200.683594 143.34375 200.523438 143.34375 200.328125 C 143.34375 200.132812 143.503906 199.972656 143.699219 199.972656 C 143.894531 199.972656 144.054688 200.132812 144.054688 200.328125 " fill-opacity="1" fill-rule="nonzero"/><path fill="#ffc14d" d="M 144.527344 204.648438 C 144.527344 204.84375 144.371094 205.003906 144.175781 205.003906 C 143.976562 205.003906 143.816406 204.84375 143.816406 204.648438 C 143.816406 204.453125 143.976562 204.292969 144.175781 204.292969 C 144.371094 204.292969 144.527344 204.453125 144.527344 204.648438 " fill-opacity="1" fill-rule="nonzero"/><path fill="#ffc14d" d="M 144.980469 208.855469 C 144.980469 209.050781 144.824219 209.210938 144.628906 209.210938 C 144.429688 209.210938 144.269531 209.050781 144.269531 208.855469 C 144.269531 208.65625 144.429688 208.496094 144.628906 208.496094 C 144.824219 208.496094 144.980469 208.65625 144.980469 208.855469 " fill-opacity="1" fill-rule="nonzero"/><path fill="#ffc14d" d="M 145.890625 213.179688 C 145.890625 213.375 145.734375 213.535156 145.535156 213.535156 C 145.339844 213.535156 145.179688 213.375 145.179688 213.179688 C 145.179688 212.980469 145.339844 212.820312 145.535156 212.820312 C 145.734375 212.820312 145.890625 212.980469 145.890625 213.179688 " fill-opacity="1" fill-rule="nonzero"/><path fill="#ffc14d" d="M 147.511719 217.511719 C 147.511719 217.707031 147.351562 217.867188 147.152344 217.867188 C 146.960938 217.867188 146.800781 217.707031 146.800781 217.511719 C 146.800781 217.316406 146.960938 217.15625 147.152344 217.15625 C 147.351562 217.15625 147.511719 217.316406 147.511719 217.511719 " fill-opacity="1" fill-rule="nonzero"/><path fill="#99341d" d="M 140.652344 203.789062 L 140.65625 203.789062 Z M 139.144531 197.53125 C 139.082031 197.53125 139.019531 197.539062 138.957031 197.550781 L 133.328125 198.691406 C 132.925781 198.773438 132.652344 199.085938 132.710938 199.394531 L 133.765625 204.589844 C 133.800781 204.777344 133.964844 204.929688 134.199219 204.992188 L 137.144531 205.765625 C 137.394531 205.832031 137.6875 205.777344 137.902344 205.621094 L 140.582031 203.691406 C 140.785156 203.546875 140.882812 203.335938 140.84375 203.136719 L 139.796875 197.960938 C 139.769531 197.816406 139.667969 197.695312 139.515625 197.617188 C 139.40625 197.558594 139.28125 197.53125 139.144531 197.53125 Z M 137.363281 206.035156 C 137.265625 206.035156 137.171875 206.023438 137.082031 206 L 134.132812 205.226562 C 133.816406 205.140625 133.585938 204.917969 133.527344 204.636719 L 132.476562 199.445312 C 132.386719 199.003906 132.746094 198.5625 133.277344 198.453125 L 138.910156 197.316406 C 139.160156 197.265625 139.414062 197.292969 139.625 197.402344 C 139.84375 197.515625 139.988281 197.695312 140.035156 197.914062 L 141.082031 203.089844 C 141.140625 203.378906 141.003906 203.6875 140.722656 203.890625 L 138.042969 205.820312 C 137.847656 205.960938 137.605469 206.035156 137.363281 206.035156 " fill-opacity="1" fill-rule="nonzero"/><path fill="#99341d" d="M 139.789062 203.367188 L 137.730469 204.855469 C 137.542969 204.988281 137.289062 205.039062 137.066406 204.976562 L 134.804688 204.382812 C 134.59375 204.324219 134.441406 204.179688 134.402344 204 L 133.589844 199.992188 C 133.535156 199.703125 133.777344 199.410156 134.136719 199.339844 L 138.460938 198.460938 C 138.820312 198.390625 139.160156 198.5625 139.21875 198.851562 L 140.027344 202.847656 C 140.066406 203.035156 139.976562 203.234375 139.789062 203.367188 " fill-opacity="1" fill-rule="nonzero"/><path fill="#99341d" d="M 135.574219 186.191406 C 136.546875 186.546875 138.890625 189.5625 139.507812 191.125 C 140.132812 192.695312 132.753906 188.445312 133.230469 187.957031 C 133.707031 187.464844 134.597656 185.835938 135.574219 186.191406 " fill-opacity="1" fill-rule="nonzero"/><path fill="#99341d" d="M 142.167969 186.410156 C 141.195312 186.765625 139.804688 189.515625 139.183594 191.082031 C 138.5625 192.648438 144.261719 188.867188 143.785156 188.375 C 143.3125 187.882812 143.140625 186.054688 142.167969 186.410156 " fill-opacity="1" fill-rule="nonzero"/><path fill="#ee9775" d="M 142.160156 186.929688 C 142.792969 187.417969 142.046875 190.226562 139.253906 190.792969 C 137.496094 191.144531 134.433594 187.597656 134.960938 187.351562 C 138.121094 185.863281 136.832031 181.46875 136.78125 181.339844 C 136.777344 181.332031 136.777344 181.332031 136.777344 181.332031 L 141.191406 181.863281 C 141.191406 181.863281 141.175781 181.914062 141.15625 182.003906 C 141.144531 182.042969 141.136719 182.085938 141.121094 182.140625 C 141.121094 182.140625 141.121094 182.140625 141.121094 182.144531 C 141.105469 182.214844 141.085938 182.296875 141.070312 182.390625 C 141.070312 182.390625 141.070312 182.390625 141.070312 182.394531 C 141.054688 182.464844 141.042969 182.539062 141.027344 182.625 C 141.019531 182.675781 141.007812 182.734375 141 182.796875 C 140.992188 182.855469 140.984375 182.917969 140.972656 182.980469 C 140.964844 183.046875 140.957031 183.109375 140.953125 183.179688 C 140.949219 183.214844 140.945312 183.25 140.941406 183.285156 C 140.894531 183.742188 140.882812 184.273438 140.933594 184.835938 C 140.941406 184.90625 140.949219 184.976562 140.960938 185.046875 C 140.984375 185.261719 140.847656 185.902344 142.160156 186.929688 " fill-opacity="1" fill-rule="nonzero"/><path fill="#ffc14d" d="M 135.574219 185.730469 C 136.546875 186.082031 138.851562 189.089844 139.472656 190.652344 C 140.09375 192.21875 132.753906 187.984375 133.230469 187.492188 C 133.707031 187 134.597656 185.371094 135.574219 185.730469 " fill-opacity="1" fill-rule="nonzero"/><path fill="#ffc14d" d="M 142.167969 185.945312 C 141.195312 186.304688 139.804688 189.050781 139.183594 190.617188 C 138.5625 192.183594 144.261719 188.402344 143.785156 187.910156 C 143.3125 187.421875 143.140625 185.589844 142.167969 185.945312 " fill-opacity="1" fill-rule="nonzero"/><path fill="#ee9775" d="M 141.453125 182.308594 C 139.980469 185.183594 136.460938 186.324219 133.589844 184.855469 C 130.714844 183.382812 129.574219 179.863281 131.042969 176.992188 C 132.511719 174.117188 136.03125 172.976562 138.90625 174.449219 C 141.78125 175.914062 142.921875 179.4375 141.453125 182.308594 " fill-opacity="1" fill-rule="nonzero"/><path fill="#2b2333" d="M 138.457031 173.503906 C 135.585938 172.035156 131.878906 172.914062 129.707031 175.296875 C 128.886719 176.191406 128.441406 177.464844 129.027344 178.707031 C 129.792969 180.328125 131.277344 179.886719 132.941406 179.359375 C 136.054688 178.371094 136.316406 176.488281 138 176.8125 C 138.609375 176.929688 138.820312 176.851562 139.609375 177.796875 C 140.078125 178.355469 141.433594 179.902344 141.839844 180.972656 C 142.929688 178.210938 141.160156 174.882812 138.457031 173.503906 " fill-opacity="1" fill-rule="nonzero"/><path fill="#2b2333" d="M 141.554688 182.355469 C 141.707031 181.699219 141.949219 181.078125 142.035156 180.445312 C 142.035156 180.445312 141.222656 179.640625 140.449219 178.738281 C 139.3125 177.417969 139.433594 176.34375 139.664062 176.773438 C 139.898438 177.207031 136.890625 175.722656 137.945312 177.140625 C 139 178.5625 138.472656 181.671875 135.246094 182.839844 C 133.285156 183.550781 132.121094 183.019531 131.464844 183.011719 C 130.984375 184.167969 132.410156 187.921875 134.34375 188.039062 C 138.21875 188.273438 140.589844 186.414062 141.554688 182.355469 " fill-opacity="1" fill-rule="nonzero"/><path fill="#ee9775" d="M 140.960938 177.730469 C 140.78125 177.246094 140.351562 176.921875 139.875 176.855469 C 139.554688 176.8125 139.308594 177.140625 139.417969 177.445312 L 139.96875 178.945312 C 140.078125 179.25 140.480469 179.339844 140.695312 179.101562 C 141.019531 178.742188 141.140625 178.214844 140.960938 177.730469 " fill-opacity="1" fill-rule="nonzero"/><path fill="#bf4124" d="M 130.621094 224.828125 C 129.417969 222.320312 128.355469 219.738281 127.761719 217.664062 C 127.722656 217.53125 127.6875 217.390625 127.640625 217.242188 C 127.601562 217.105469 127.566406 216.964844 127.523438 216.820312 C 127.519531 216.808594 127.515625 216.792969 127.511719 216.773438 C 127.488281 216.695312 127.464844 216.609375 127.441406 216.527344 C 127.25 215.847656 127.035156 215.058594 126.800781 214.1875 C 126.765625 214.042969 126.722656 213.894531 126.683594 213.746094 C 126.636719 213.5625 126.585938 213.367188 126.535156 213.171875 L 131.542969 202.636719 C 131.542969 202.636719 130.679688 216.046875 130.621094 224.828125 " fill-opacity="1" fill-rule="nonzero"/><path fill="#ffc14d" d="M 127.519531 188.984375 C 137.359375 189.449219 130.171875 208.628906 129.242188 215.371094 C 128.3125 222.109375 121.191406 234.570312 119.832031 237.160156 C 119.28125 238.210938 118.152344 236.753906 118.152344 236.753906 C 118.152344 236.753906 118.460938 224.484375 119.269531 216.019531 C 119.707031 211.417969 118.878906 204.738281 119.320312 200.683594 C 119.996094 194.410156 124.207031 188.828125 127.519531 188.984375 " fill-opacity="1" fill-rule="nonzero"/><path fill="#ee9775" d="M 118.839844 235.921875 C 118.839844 235.921875 114.679688 236.828125 113.863281 239.289062 C 113.429688 240.597656 114.351562 239.675781 116.113281 238.78125 C 117.261719 238.199219 117.714844 238.222656 118.015625 238.429688 C 118.289062 238.617188 117.847656 239.054688 117.65625 239.808594 C 117.34375 241.023438 119.335938 238.84375 119.757812 237.996094 C 120.179688 237.144531 119.75 235.601562 118.839844 235.921875 " fill-opacity="1" fill-rule="nonzero"/><path fill="#ee9775" d="M 119.914062 233.132812 C 119.394531 233.046875 118.777344 232.777344 118.289062 232.539062 C 118.195312 235.078125 118.152344 236.753906 118.152344 236.753906 C 118.152344 236.753906 119.28125 238.210938 119.832031 237.160156 C 120.175781 236.507812 120.882812 235.230469 121.765625 233.574219 C 121.027344 233.378906 120.308594 233.199219 119.914062 233.132812 " fill-opacity="1" fill-rule="nonzero"/><path fill="#99341d" d="M 119.625 234.246094 C 120.226562 234.410156 121.117188 234.570312 121.4375 234.625 C 121.507812 234.636719 121.582031 234.605469 121.625 234.546875 L 122.761719 232.941406 C 122.839844 232.832031 122.785156 232.679688 122.65625 232.644531 C 122.152344 232.507812 121.027344 232.1875 120.09375 231.832031 C 119.289062 231.523438 118.675781 231.101562 118.339844 230.839844 C 118.214844 230.746094 118.039062 230.828125 118.03125 230.984375 L 117.894531 233.421875 C 117.890625 233.5 117.933594 233.574219 118.003906 233.605469 C 118.285156 233.742188 119.03125 234.085938 119.625 234.246094 " fill-opacity="1" fill-rule="nonzero"/><path fill="#fde3b9" d="M 139.074219 237.574219 L 139.074219 238.054688 L 139.0625 238.054688 C 138.507812 238.039062 138.089844 238.214844 137.839844 238.578125 C 137.820312 238.605469 137.800781 238.640625 137.78125 238.671875 C 137.714844 238.789062 137.628906 238.898438 137.535156 238.996094 L 120.578125 238.996094 L 120.582031 238.8125 L 120.609375 235.742188 C 120.617188 235.265625 120.914062 234.847656 121.359375 234.6875 C 122.671875 234.226562 125.644531 233.363281 129.5625 233.363281 C 136.652344 233.363281 138.617188 236.589844 139 237.394531 C 139.054688 237.511719 139.074219 237.574219 139.074219 237.574219 " fill-opacity="1" fill-rule="nonzero"/><path fill="#fde3b9" d="M 157.507812 238.996094 L 140.601562 238.996094 C 140.511719 238.910156 140.4375 238.808594 140.371094 238.699219 C 140.347656 238.65625 140.316406 238.617188 140.289062 238.578125 C 140.03125 238.246094 139.625 238.074219 139.074219 238.054688 L 139.0625 238.054688 C 139.042969 238.054688 139.027344 238.054688 139.011719 238.054688 L 139.011719 237.574219 C 139.011719 237.574219 139.035156 237.511719 139.085938 237.398438 L 139.085938 237.394531 C 139.46875 236.589844 141.433594 233.363281 148.527344 233.363281 C 152.441406 233.363281 155.414062 234.226562 156.726562 234.6875 C 157.175781 234.847656 157.472656 235.265625 157.476562 235.742188 L 157.507812 238.8125 L 157.507812 238.996094 " fill-opacity="1" fill-rule="nonzero"/><path fill="#c9b593" d="M 139.074219 237.695312 L 139.074219 238.054688 L 139.0625 238.054688 C 139.042969 238.054688 139.027344 238.054688 139.011719 238.054688 C 138.480469 238.046875 138.082031 238.226562 137.839844 238.578125 C 137.820312 238.605469 137.800781 238.640625 137.78125 238.671875 C 137.714844 238.789062 137.628906 238.898438 137.535156 238.996094 C 137.496094 239.035156 137.453125 239.078125 137.40625 239.113281 L 120.578125 239.113281 L 120.582031 238.933594 L 120.585938 238.8125 L 120.585938 238.480469 L 136.417969 238.480469 C 136.59375 238.480469 136.753906 238.386719 136.84375 238.226562 C 137.082031 237.816406 137.625 237.15625 138.75 237.070312 C 138.828125 237.195312 138.890625 237.304688 138.941406 237.394531 C 138.964844 237.441406 138.980469 237.476562 139 237.515625 C 139.054688 237.628906 139.074219 237.695312 139.074219 237.695312 " fill-opacity="1" fill-rule="nonzero"/><path fill="#c9b593" d="M 138.09375 237.519531 C 138.078125 237.519531 138.058594 237.511719 138.046875 237.496094 C 138.03125 237.472656 136.164062 235.042969 131.601562 234.566406 C 127.078125 234.089844 122.242188 235.441406 122.195312 235.453125 C 122.164062 235.460938 122.132812 235.445312 122.121094 235.414062 C 122.113281 235.382812 122.132812 235.351562 122.164062 235.34375 C 122.210938 235.328125 127.066406 233.972656 131.613281 234.449219 C 136.230469 234.9375 138.121094 237.402344 138.140625 237.425781 C 138.160156 237.453125 138.15625 237.488281 138.128906 237.507812 C 138.117188 237.515625 138.105469 237.519531 138.09375 237.519531 " fill-opacity="1" fill-rule="nonzero"/><path fill="#c9b593" d="M 134.75 237.679688 C 134.742188 237.679688 134.734375 237.679688 134.730469 237.675781 C 134.695312 237.664062 131.054688 236.519531 120.601562 237.632812 C 120.566406 237.636719 120.539062 237.613281 120.539062 237.582031 C 120.535156 237.550781 120.558594 237.523438 120.589844 237.519531 C 131.074219 236.398438 134.730469 237.554688 134.765625 237.566406 C 134.796875 237.578125 134.8125 237.609375 134.800781 237.640625 C 134.792969 237.664062 134.773438 237.679688 134.75 237.679688 " fill-opacity="1" fill-rule="nonzero"/><path fill="#c9b593" d="M 122.175781 238.195312 C 122.148438 238.195312 122.121094 238.175781 122.121094 238.144531 C 122.117188 238.109375 122.140625 238.082031 122.171875 238.078125 C 122.226562 238.078125 127.535156 237.675781 130.921875 238.027344 C 130.957031 238.027344 130.976562 238.058594 130.976562 238.089844 C 130.972656 238.121094 130.945312 238.144531 130.910156 238.144531 C 127.53125 237.792969 122.234375 238.191406 122.183594 238.195312 C 122.179688 238.195312 122.179688 238.195312 122.175781 238.195312 " fill-opacity="1" fill-rule="nonzero"/><path fill="#c9b593" d="M 136.710938 237.453125 C 136.703125 237.453125 136.691406 237.453125 136.679688 237.445312 C 136.644531 237.421875 133.152344 235.171875 128.054688 235.613281 C 128.023438 235.617188 127.992188 235.59375 127.992188 235.5625 C 127.988281 235.53125 128.011719 235.5 128.042969 235.5 C 133.183594 235.050781 136.710938 237.324219 136.746094 237.347656 C 136.773438 237.363281 136.78125 237.402344 136.761719 237.425781 C 136.75 237.445312 136.730469 237.453125 136.710938 237.453125 " fill-opacity="1" fill-rule="nonzero"/><path fill="#c9b593" d="M 157.1875 235.765625 C 157.179688 235.765625 157.171875 235.765625 157.164062 235.761719 C 157.121094 235.742188 152.734375 233.789062 147.824219 234.113281 C 144.179688 234.355469 143.203125 235.027344 142.257812 235.675781 C 142.230469 235.695312 142.195312 235.691406 142.175781 235.664062 C 142.160156 235.636719 142.164062 235.601562 142.191406 235.582031 C 143.152344 234.921875 144.140625 234.238281 147.816406 233.996094 C 152.757812 233.671875 157.167969 235.632812 157.210938 235.65625 C 157.238281 235.667969 157.253906 235.703125 157.238281 235.730469 C 157.230469 235.753906 157.210938 235.765625 157.1875 235.765625 " fill-opacity="1" fill-rule="nonzero"/><path fill="#c9b593" d="M 142.535156 238.257812 C 142.511719 238.257812 142.488281 238.246094 142.480469 238.21875 C 142.46875 238.1875 142.488281 238.15625 142.515625 238.144531 C 142.539062 238.140625 144.597656 237.464844 146.53125 237.335938 C 150.246094 237.09375 153.824219 237.648438 155.746094 237.945312 C 156.3125 238.03125 156.71875 238.09375 156.941406 238.109375 C 156.972656 238.109375 156.996094 238.136719 156.996094 238.167969 C 156.996094 238.199219 156.964844 238.226562 156.933594 238.226562 C 156.707031 238.210938 156.296875 238.148438 155.730469 238.058594 C 153.8125 237.765625 150.238281 237.210938 146.539062 237.453125 C 144.621094 237.578125 142.570312 238.25 142.550781 238.257812 C 142.546875 238.257812 142.539062 238.257812 142.535156 238.257812 " fill-opacity="1" fill-rule="nonzero"/><path fill="#c9b593" d="M 155.902344 237.128906 C 155.898438 237.128906 155.894531 237.128906 155.890625 237.128906 C 155.695312 237.085938 155.46875 237.03125 155.214844 236.972656 C 153.292969 236.515625 149.714844 235.664062 145.773438 236.503906 C 145.742188 236.511719 145.707031 236.488281 145.703125 236.457031 C 145.695312 236.429688 145.714844 236.398438 145.746094 236.390625 C 149.714844 235.546875 153.308594 236.398438 155.242188 236.859375 C 155.492188 236.917969 155.71875 236.972656 155.914062 237.015625 C 155.945312 237.023438 155.964844 237.054688 155.960938 237.082031 C 155.953125 237.113281 155.929688 237.128906 155.902344 237.128906 " fill-opacity="1" fill-rule="nonzero"/><path fill="#c9b593" d="M 140.488281 237.828125 C 140.472656 237.828125 140.460938 237.824219 140.449219 237.8125 C 140.425781 237.789062 140.421875 237.753906 140.449219 237.730469 C 140.464844 237.710938 142.257812 235.886719 144.648438 235.324219 C 149.265625 234.234375 152.367188 235.078125 154.21875 235.582031 L 154.472656 235.652344 C 154.503906 235.660156 154.523438 235.691406 154.515625 235.722656 C 154.503906 235.753906 154.472656 235.773438 154.441406 235.765625 L 154.1875 235.695312 C 152.347656 235.191406 149.261719 234.355469 144.675781 235.433594 C 142.316406 235.992188 140.546875 237.792969 140.53125 237.8125 C 140.519531 237.824219 140.503906 237.828125 140.488281 237.828125 " fill-opacity="1" fill-rule="nonzero"/><path fill="#c9b593" d="M 157.570312 239.113281 L 140.726562 239.113281 C 140.683594 239.078125 140.640625 239.035156 140.601562 238.996094 C 140.511719 238.910156 140.4375 238.808594 140.371094 238.699219 C 140.347656 238.65625 140.316406 238.617188 140.289062 238.578125 C 140.03125 238.246094 139.625 238.074219 139.074219 238.054688 L 139.074219 237.695312 C 139.074219 237.695312 139.085938 237.632812 139.128906 237.515625 C 139.140625 237.484375 139.152344 237.445312 139.164062 237.402344 C 139.195312 237.3125 139.226562 237.203125 139.269531 237.074219 C 140.472656 237.164062 141.050781 237.828125 141.292969 238.230469 C 141.386719 238.386719 141.546875 238.480469 141.71875 238.480469 L 157.570312 238.480469 L 157.570312 239.113281 " fill-opacity="1" fill-rule="nonzero"/><path fill="#8c301a" d="M 158.613281 239.210938 C 158.613281 239.394531 158.464844 239.539062 158.285156 239.539062 L 141.71875 239.539062 C 141.351562 239.539062 141.003906 239.40625 140.726562 239.175781 C 140.683594 239.144531 140.640625 239.101562 140.601562 239.0625 C 140.511719 238.972656 140.4375 238.871094 140.371094 238.761719 C 140.347656 238.722656 140.316406 238.679688 140.289062 238.640625 C 140.03125 238.3125 139.625 238.136719 139.074219 238.117188 L 139.0625 238.117188 C 139.042969 238.117188 139.027344 238.117188 139.011719 238.117188 C 138.480469 238.113281 138.082031 238.289062 137.839844 238.640625 C 137.820312 238.671875 137.800781 238.703125 137.78125 238.738281 C 137.714844 238.855469 137.628906 238.964844 137.535156 239.0625 C 137.496094 239.101562 137.453125 239.144531 137.40625 239.175781 C 137.132812 239.40625 136.78125 239.539062 136.417969 239.539062 L 119.988281 239.539062 C 119.804688 239.539062 119.660156 239.390625 119.660156 239.210938 C 119.660156 239.027344 119.804688 238.878906 119.988281 238.878906 L 136.417969 238.878906 C 136.59375 238.878906 136.753906 238.785156 136.84375 238.621094 C 137.089844 238.195312 137.679688 237.484375 138.941406 237.460938 L 139 237.460938 C 139.027344 237.460938 139.058594 237.464844 139.085938 237.464844 C 139.101562 237.464844 139.117188 237.464844 139.128906 237.464844 C 139.140625 237.464844 139.152344 237.464844 139.164062 237.46875 C 140.441406 237.523438 141.042969 238.214844 141.292969 238.628906 C 141.386719 238.789062 141.546875 238.878906 141.71875 238.878906 L 158.285156 238.878906 C 158.464844 238.878906 158.613281 239.03125 158.613281 239.210938 " fill-opacity="1" fill-rule="nonzero"/></svg>